<?xml version="1.0" encoding="UTF-8" standalone="no"?>
<svg
   xmlns:dc="http://purl.org/dc/elements/1.1/"
   xmlns:cc="http://creativecommons.org/ns#"
   xmlns:rdf="http://www.w3.org/1999/02/22-rdf-syntax-ns#"
   xmlns:svg="http://www.w3.org/2000/svg"
   xmlns="http://www.w3.org/2000/svg"
   xmlns:sodipodi="http://sodipodi.sourceforge.net/DTD/sodipodi-0.dtd"
   xmlns:inkscape="http://www.inkscape.org/namespaces/inkscape"
   inkscape:version="1.0 (4035a4fb49, 2020-05-01)"
   sodipodi:docname="rdf úložiště.svg"
   id="svg171"
   version="1.1"
   image-rendering="auto"
   stroke-dashoffset="0"
   font-size="12px"
   stroke-linejoin="miter"
   font-style="normal"
   font-family="'Dialog'"
   viewBox="0 0 873 201"
   stroke-width="1"
   font-weight="normal"
   stroke-dasharray="none"
   fill="black"
   stroke-opacity="1"
   shape-rendering="auto"
   stroke-miterlimit="10"
   stroke-linecap="square"
   stroke="black"
   text-rendering="auto"
   color-interpolation="auto"
   color-rendering="auto"
   fill-opacity="1">
  <metadata
     id="metadata175">
    <rdf:RDF>
      <cc:Work
         rdf:about="">
        <dc:format>image/svg+xml</dc:format>
        <dc:type
           rdf:resource="http://purl.org/dc/dcmitype/StillImage" />
      </cc:Work>
    </rdf:RDF>
  </metadata>
  <sodipodi:namedview
     inkscape:current-layer="svg171"
     inkscape:window-maximized="1"
     inkscape:window-y="-6"
     inkscape:window-x="-6"
     inkscape:cy="100.5"
     inkscape:cx="436.5"
     inkscape:zoom="1.3024055"
     showgrid="false"
     id="namedview173"
     inkscape:window-height="1058"
     inkscape:window-width="1920"
     inkscape:pageshadow="2"
     inkscape:pageopacity="0"
     guidetolerance="10"
     gridtolerance="10"
     objecttolerance="10"
     borderopacity="1"
     bordercolor="#666666"
     pagecolor="#ffffff" />
  <!--Generated by Archi with Batik SVG Generator-->
  <defs
     id="genericDefs" />
  <rect
     y="0"
     x="1.5356201"
     height="204.23747"
     width="873.76782"
     id="rect177"
     style="fill:#ffffff" />
  <g
     id="g169">
    <defs
       id="defs1">
      <clipPath
         id="clipPath1"
         clipPathUnits="userSpaceOnUse">
        <path
           id="path3"
           d="M9 9 L864 9 L864 192 L9 192 L9 9 Z" />
      </clipPath>
      <clipPath
         id="clipPath2"
         clipPathUnits="userSpaceOnUse">
        <path
           id="path6"
           d="M360 13 L531 13 L531 31 L360 31 L360 13 Z" />
      </clipPath>
      <clipPath
         id="clipPath3"
         clipPathUnits="userSpaceOnUse">
        <path
           id="path9"
           d="M333 57 L564 57 L564 168 L333 168 L333 57 Z" />
      </clipPath>
      <clipPath
         id="clipPath4"
         clipPathUnits="userSpaceOnUse">
        <path
           id="path12"
           d="M423 61 L491 61 L491 79 L423 79 L423 61 Z" />
      </clipPath>
      <clipPath
         id="clipPath5"
         clipPathUnits="userSpaceOnUse">
        <path
           id="path15"
           d="M369 93 L540 93 L540 150 L369 150 L369 93 Z" />
      </clipPath>
      <clipPath
         id="clipPath6"
         clipPathUnits="userSpaceOnUse">
        <path
           id="path18"
           d="M407 97 L502 97 L502 115 L407 115 L407 97 Z" />
      </clipPath>
      <clipPath
         id="clipPath7"
         clipPathUnits="userSpaceOnUse">
        <path
           id="path21"
           d="M729 57 L852 57 L852 168 L729 168 L729 57 Z" />
      </clipPath>
      <clipPath
         id="clipPath8"
         clipPathUnits="userSpaceOnUse">
        <path
           id="path24"
           d="M756 61 L843 61 L843 79 L756 79 L756 61 Z" />
      </clipPath>
      <clipPath
         id="clipPath9"
         clipPathUnits="userSpaceOnUse">
        <path
           id="path27"
           d="M33 57 L252 57 L252 168 L33 168 L33 57 Z" />
      </clipPath>
      <clipPath
         id="clipPath10"
         clipPathUnits="userSpaceOnUse">
        <path
           id="path30"
           d="M60 61 L242 61 L242 95 L60 95 L60 61 Z" />
      </clipPath>
      <clipPath
         id="clipPath11"
         clipPathUnits="userSpaceOnUse">
        <path
           id="path33"
           d="M682 112 L682 130 L587 130 L587 112 ZM528 103 L528 139 L741 139 L741 103 Z" />
      </clipPath>
      <clipPath
         id="clipPath12"
         clipPathUnits="userSpaceOnUse">
        <path
           id="path36"
           d="M722 117 L732 117 L732 126 L722 126 L722 117 Z" />
      </clipPath>
      <clipPath
         id="clipPath13"
         clipPathUnits="userSpaceOnUse">
        <path
           id="path39"
           d="M587 112 L682 112 L682 130 L587 130 L587 112 Z" />
      </clipPath>
      <clipPath
         id="clipPath14"
         clipPathUnits="userSpaceOnUse">
        <path
           id="path42"
           d="M331 96 L331 146 L289 146 L289 96 ZM240 87 L240 155 L381 155 L381 87 Z" />
      </clipPath>
      <clipPath
         id="clipPath15"
         clipPathUnits="userSpaceOnUse">
        <path
           id="path45"
           d="M362 117 L372 117 L372 126 L362 126 L362 117 Z" />
      </clipPath>
      <clipPath
         id="clipPath16"
         clipPathUnits="userSpaceOnUse">
        <path
           id="path48"
           d="M289 96 L331 96 L331 146 L289 146 L289 96 Z" />
      </clipPath>
      <clipPath
         id="clipPath17"
         clipPathUnits="userSpaceOnUse">
        <path
           id="path51"
           d="M672 97 L672 115 L596 115 L596 97 ZM528 88 L528 124 L741 124 L741 88 Z" />
      </clipPath>
      <clipPath
         id="clipPath18"
         clipPathUnits="userSpaceOnUse">
        <path
           id="path54"
           d="M537 102 L547 102 L547 111 L537 111 L537 102 Z" />
      </clipPath>
      <clipPath
         id="clipPath19"
         clipPathUnits="userSpaceOnUse">
        <path
           id="path57"
           d="M596 97 L672 97 L672 115 L596 115 L596 97 Z" />
      </clipPath>
    </defs>
    <g
       id="g63"
       stroke-miterlimit="0"
       stroke-width="0"
       stroke="rgb(181,255,255)"
       stroke-linejoin="round"
       font-family="'Segoe UI'"
       text-rendering="optimizeLegibility"
       fill="rgb(181,255,255)">
      <rect
         id="rect61"
         stroke="none"
         clip-path="url(#clipPath1)"
         y="10"
         height="179"
         width="841"
         x="20" />
    </g>
    <g
       id="g167"
       stroke="rgb(126,178,178)"
       stroke-linecap="butt"
       font-family="'Segoe UI'"
       text-rendering="optimizeLegibility"
       fill="rgb(126,178,178)">
      <path
         id="path65"
         clip-path="url(#clipPath1)"
         d="M20 20 L20 10 L861 10 L861 189 L20 189 L20 53"
         fill="none" />
      <line
         id="line67"
         y1="33"
         x2="20"
         clip-path="url(#clipPath1)"
         x1="20"
         fill="none"
         y2="40" />
      <rect
         id="rect69"
         stroke="none"
         height="13"
         width="20"
         fill="rgb(162,229,229)"
         clip-path="url(#clipPath1)"
         y="20"
         x="10" />
      <rect
         id="rect71"
         stroke="none"
         height="13"
         width="20"
         fill="rgb(162,229,229)"
         clip-path="url(#clipPath1)"
         y="40"
         x="10" />
      <rect
         id="rect73"
         clip-path="url(#clipPath1)"
         y="20"
         height="13"
         width="20"
         x="10"
         fill="none" />
      <rect
         id="rect75"
         clip-path="url(#clipPath1)"
         y="40"
         height="13"
         width="20"
         x="10"
         fill="none" />
      <path
         id="path77"
         stroke="none"
         clip-path="url(#clipPath2)"
         d="M368.875 27 L367.6719 27 L363.3438 20.2969 Q363.1875 20.0469 363.0781 19.7812 L363.0469 19.7812 Q363.0938 20.0469 363.0938 20.9219 L363.0938 27 L362.1094 27 L362.1094 18.5938 L363.375 18.5938 L367.5938 25.1875 Q367.8438 25.5938 367.9219 25.75 L367.9531 25.75 Q367.8906 25.3906 367.8906 24.5156 L367.8906 18.5938 L368.875 18.5938 L368.875 27 ZM375.2422 27 L374.2891 27 L374.2891 26.0625 L374.2578 26.0625 Q373.6328 27.1406 372.4141 27.1406 Q371.5234 27.1406 371.0078 26.6719 Q370.5078 26.1875 370.5078 25.4062 Q370.5078 23.7188 372.4922 23.4531 L374.2891 23.2031 Q374.2891 21.6719 373.0547 21.6719 Q371.9609 21.6719 371.0859 22.4062 L371.0859 21.4219 Q371.9766 20.8594 373.1328 20.8594 Q375.2422 20.8594 375.2422 23.0938 L375.2422 27 ZM374.2891 23.9688 L372.8359 24.1562 Q372.1641 24.25 371.8203 24.5 Q371.4922 24.7344 371.4922 25.3281 Q371.4922 25.7812 371.8047 26.0625 Q372.1172 26.3281 372.6328 26.3281 Q373.3516 26.3281 373.8203 25.8281 Q374.2891 25.3281 374.2891 24.5625 L374.2891 23.9688 ZM374.4141 17.9375 L372.8672 19.8594 L372.1328 19.8594 L373.4297 17.9375 L374.4141 17.9375 ZM380.1914 21.9688 Q379.9258 21.7812 379.457 21.7812 Q378.8477 21.7812 378.4258 22.3594 Q378.0195 22.9375 378.0195 23.9375 L378.0195 27 L377.0508 27 L377.0508 21 L378.0195 21 L378.0195 22.2344 L378.0352 22.2344 Q378.2383 21.6094 378.6602 21.25 Q379.082 20.8906 379.6133 20.8906 Q379.9883 20.8906 380.1914 20.9688 L380.1914 21.9688 ZM383.7383 27.1406 Q382.4102 27.1406 381.6133 26.2969 Q380.8164 25.4531 380.8164 24.0625 Q380.8164 22.5625 381.6445 21.7188 Q382.4727 20.8594 383.8789 20.8594 Q385.2227 20.8594 385.9727 21.6875 Q386.7227 22.5156 386.7227 23.9688 Q386.7227 25.4062 385.9102 26.2812 Q385.0977 27.1406 383.7383 27.1406 ZM383.8008 21.6719 Q382.8789 21.6719 382.332 22.2969 Q381.8008 22.9219 381.8008 24.0312 Q381.8008 25.0938 382.3477 25.7188 Q382.8945 26.3281 383.8008 26.3281 Q384.7383 26.3281 385.2383 25.7344 Q385.7383 25.125 385.7383 24.0156 Q385.7383 22.8906 385.2383 22.2812 Q384.7383 21.6719 383.8008 21.6719 ZM393.3789 27 L392.4258 27 L392.4258 25.9844 L392.3945 25.9844 Q391.7227 27.1406 390.332 27.1406 Q389.207 27.1406 388.5195 26.3438 Q387.8477 25.5312 387.8477 24.1406 Q387.8477 22.6562 388.5977 21.7656 Q389.3477 20.8594 390.5977 20.8594 Q391.832 20.8594 392.3945 21.8281 L392.4258 21.8281 L392.4258 18.1094 L393.3789 18.1094 L393.3789 27 ZM392.4258 24.2812 L392.4258 23.4062 Q392.4258 22.6719 391.9414 22.1719 Q391.457 21.6719 390.7227 21.6719 Q389.8477 21.6719 389.332 22.3125 Q388.832 22.9531 388.832 24.0938 Q388.832 25.125 389.3164 25.7344 Q389.8008 26.3281 390.6133 26.3281 Q391.4102 26.3281 391.9102 25.75 Q392.4258 25.1719 392.4258 24.2812 ZM400.3047 27 L399.3516 27 L399.3516 23.5781 Q399.3516 21.6719 397.9453 21.6719 Q397.2266 21.6719 396.7578 22.2188 Q396.2891 22.75 396.2891 23.5781 L396.2891 27 L395.3203 27 L395.3203 21 L396.2891 21 L396.2891 22 L396.3047 22 Q396.9922 20.8594 398.2734 20.8594 Q399.2578 20.8594 399.7734 21.5 Q400.3047 22.125 400.3047 23.3281 L400.3047 27 ZM403.0801 27 L402.1113 27 L402.1113 21 L403.0801 21 L403.0801 27 ZM403.9395 17.9375 L402.3926 19.8594 L401.6582 19.8594 L402.9551 17.9375 L403.9395 17.9375 ZM413.2891 27 L411.9453 27 L409.2891 24.1094 L409.2734 24.1094 L409.2734 27 L408.3047 27 L408.3047 18.1094 L409.2734 18.1094 L409.2734 23.75 L409.2891 23.75 L411.8203 21 L413.0703 21 L410.2891 23.8906 L413.2891 27 ZM418.5664 27 L417.6133 27 L417.6133 26.0625 L417.582 26.0625 Q416.957 27.1406 415.7383 27.1406 Q414.8477 27.1406 414.332 26.6719 Q413.832 26.1875 413.832 25.4062 Q413.832 23.7188 415.8164 23.4531 L417.6133 23.2031 Q417.6133 21.6719 416.3789 21.6719 Q415.2852 21.6719 414.4102 22.4062 L414.4102 21.4219 Q415.3008 20.8594 416.457 20.8594 Q418.5664 20.8594 418.5664 23.0938 L418.5664 27 ZM417.6133 23.9688 L416.1602 24.1562 Q415.4883 24.25 415.1445 24.5 Q414.8164 24.7344 414.8164 25.3281 Q414.8164 25.7812 415.1289 26.0625 Q415.4414 26.3281 415.957 26.3281 Q416.6758 26.3281 417.1445 25.8281 Q417.6133 25.3281 417.6133 24.5625 L417.6133 23.9688 ZM423.1562 26.9375 Q422.8281 27.125 422.2656 27.125 Q420.6875 27.125 420.6875 25.375 L420.6875 21.8125 L419.6562 21.8125 L419.6562 21 L420.6875 21 L420.6875 19.5312 L421.6562 19.2188 L421.6562 21 L423.1562 21 L423.1562 21.8125 L421.6562 21.8125 L421.6562 25.2031 Q421.6562 25.7969 421.8594 26.0625 Q422.0625 26.3125 422.5312 26.3125 Q422.9062 26.3125 423.1562 26.125 L423.1562 26.9375 ZM428.7383 27 L427.7852 27 L427.7852 26.0625 L427.7539 26.0625 Q427.1289 27.1406 425.9102 27.1406 Q425.0195 27.1406 424.5039 26.6719 Q424.0039 26.1875 424.0039 25.4062 Q424.0039 23.7188 425.9883 23.4531 L427.7852 23.2031 Q427.7852 21.6719 426.5508 21.6719 Q425.457 21.6719 424.582 22.4062 L424.582 21.4219 Q425.4727 20.8594 426.6289 20.8594 Q428.7383 20.8594 428.7383 23.0938 L428.7383 27 ZM427.7852 23.9688 L426.332 24.1562 Q425.6602 24.25 425.3164 24.5 Q424.9883 24.7344 424.9883 25.3281 Q424.9883 25.7812 425.3008 26.0625 Q425.6133 26.3281 426.1289 26.3281 Q426.8477 26.3281 427.3164 25.8281 Q427.7852 25.3281 427.7852 24.5625 L427.7852 23.9688 ZM431.5156 27 L430.5469 27 L430.5469 18.1094 L431.5156 18.1094 L431.5156 27 ZM435.9688 27.1406 Q434.6406 27.1406 433.8438 26.2969 Q433.0469 25.4531 433.0469 24.0625 Q433.0469 22.5625 433.875 21.7188 Q434.7031 20.8594 436.1094 20.8594 Q437.4531 20.8594 438.2031 21.6875 Q438.9531 22.5156 438.9531 23.9688 Q438.9531 25.4062 438.1406 26.2812 Q437.3281 27.1406 435.9688 27.1406 ZM436.0312 21.6719 Q435.1094 21.6719 434.5625 22.2969 Q434.0312 22.9219 434.0312 24.0312 Q434.0312 25.0938 434.5781 25.7188 Q435.125 26.3281 436.0312 26.3281 Q436.9688 26.3281 437.4688 25.7344 Q437.9688 25.125 437.9688 24.0156 Q437.9688 22.8906 437.4688 22.2812 Q436.9688 21.6719 436.0312 21.6719 ZM445.6094 26.5156 Q445.6094 29.8281 442.4531 29.8281 Q441.3281 29.8281 440.5 29.4062 L440.5 28.4375 Q441.5156 29 442.4375 29 Q444.6562 29 444.6562 26.6406 L444.6562 25.9844 L444.625 25.9844 Q443.9375 27.1406 442.5625 27.1406 Q441.4375 27.1406 440.75 26.3438 Q440.0781 25.5469 440.0781 24.1875 Q440.0781 22.6562 440.8125 21.7656 Q441.5469 20.8594 442.8281 20.8594 Q444.0469 20.8594 444.625 21.8281 L444.6562 21.8281 L444.6562 21 L445.6094 21 L445.6094 26.5156 ZM444.6562 24.2812 L444.6562 23.4062 Q444.6562 22.6875 444.1719 22.1875 Q443.6875 21.6719 442.9688 21.6719 Q442.0781 21.6719 441.5625 22.3281 Q441.0625 22.9688 441.0625 24.125 Q441.0625 25.125 441.5469 25.7344 Q442.0312 26.3281 442.8281 26.3281 Q443.6406 26.3281 444.1406 25.7656 Q444.6562 25.1875 444.6562 24.2812 ZM453.3535 27.1406 Q452.0254 27.1406 451.2285 26.2969 Q450.4316 25.4531 450.4316 24.0625 Q450.4316 22.5625 451.2598 21.7188 Q452.0879 20.8594 453.4941 20.8594 Q454.8379 20.8594 455.5879 21.6875 Q456.3379 22.5156 456.3379 23.9688 Q456.3379 25.4062 455.5254 26.2812 Q454.7129 27.1406 453.3535 27.1406 ZM453.416 21.6719 Q452.4941 21.6719 451.9473 22.2969 Q451.416 22.9219 451.416 24.0312 Q451.416 25.0938 451.9629 25.7188 Q452.5098 26.3281 453.416 26.3281 Q454.3535 26.3281 454.8535 25.7344 Q455.3535 25.125 455.3535 24.0156 Q455.3535 22.8906 454.8535 22.2812 Q454.3535 21.6719 453.416 21.6719 ZM460.6504 26.9375 Q460.3223 27.125 459.7598 27.125 Q458.1816 27.125 458.1816 25.375 L458.1816 21.8125 L457.1504 21.8125 L457.1504 21 L458.1816 21 L458.1816 19.5312 L459.1504 19.2188 L459.1504 21 L460.6504 21 L460.6504 21.8125 L459.1504 21.8125 L459.1504 25.2031 Q459.1504 25.7969 459.3535 26.0625 Q459.5566 26.3125 460.0254 26.3125 Q460.4004 26.3125 460.6504 26.125 L460.6504 26.9375 ZM466.7637 24.2344 L462.5293 24.2344 Q462.5449 25.2344 463.0605 25.7812 Q463.5762 26.3281 464.4824 26.3281 Q465.498 26.3281 466.3418 25.6562 L466.3418 26.5625 Q465.5605 27.1406 464.248 27.1406 Q462.9824 27.1406 462.248 26.3281 Q461.5293 25.5 461.5293 24.0156 Q461.5293 22.625 462.3262 21.75 Q463.123 20.8594 464.2949 20.8594 Q465.4668 20.8594 466.1074 21.625 Q466.7637 22.375 466.7637 23.7344 L466.7637 24.2344 ZM465.7793 23.4219 Q465.7793 22.5938 465.373 22.1406 Q464.9824 21.6719 464.2793 21.6719 Q463.5918 21.6719 463.123 22.1562 Q462.6543 22.6406 462.5449 23.4219 L465.7793 23.4219 ZM472.9297 21 L470.5391 27 L469.6016 27 L467.3203 21 L468.3828 21 L469.8984 25.3594 Q470.0703 25.8438 470.1172 26.2031 L470.1328 26.2031 Q470.1953 25.75 470.3203 25.375 L471.9141 21 L472.9297 21 ZM477.0996 21.9688 Q476.834 21.7812 476.3652 21.7812 Q475.7559 21.7812 475.334 22.3594 Q474.9277 22.9375 474.9277 23.9375 L474.9277 27 L473.959 27 L473.959 21 L474.9277 21 L474.9277 22.2344 L474.9434 22.2344 Q475.1465 21.6094 475.5684 21.25 Q475.9902 20.8906 476.5215 20.8906 Q476.8965 20.8906 477.0996 20.9688 L477.0996 21.9688 ZM477.1621 17.9219 L475.9121 19.8594 L475.1309 19.8594 L473.8652 17.9219 L474.5371 17.9219 L475.5059 19.2656 L476.459 17.9219 L477.1621 17.9219 ZM482.959 24.2344 L478.7246 24.2344 Q478.7402 25.2344 479.2559 25.7812 Q479.7715 26.3281 480.6777 26.3281 Q481.6934 26.3281 482.5371 25.6562 L482.5371 26.5625 Q481.7559 27.1406 480.4434 27.1406 Q479.1777 27.1406 478.4434 26.3281 Q477.7246 25.5 477.7246 24.0156 Q477.7246 22.625 478.5215 21.75 Q479.3184 20.8594 480.4902 20.8594 Q481.6621 20.8594 482.3027 21.625 Q482.959 22.375 482.959 23.7344 L482.959 24.2344 ZM481.9746 23.4219 Q481.9746 22.5938 481.5684 22.1406 Q481.1777 21.6719 480.4746 21.6719 Q479.7871 21.6719 479.3184 22.1562 Q478.8496 22.6406 478.7402 23.4219 L481.9746 23.4219 ZM489.3906 27 L488.4375 27 L488.4375 23.5781 Q488.4375 21.6719 487.0312 21.6719 Q486.3125 21.6719 485.8438 22.2188 Q485.375 22.75 485.375 23.5781 L485.375 27 L484.4062 27 L484.4062 21 L485.375 21 L485.375 22 L485.3906 22 Q486.0781 20.8594 487.3594 20.8594 Q488.3438 20.8594 488.8594 21.5 Q489.3906 22.125 489.3906 23.3281 L489.3906 27 ZM495.9785 21 L493.2129 27.9688 Q492.4785 29.8281 491.1504 29.8281 Q490.7754 29.8281 490.5098 29.75 L490.5098 28.8906 Q490.8223 29 491.0879 29 Q491.8066 29 492.1816 28.125 L492.6504 26.9844 L490.3066 21 L491.3848 21 L492.9941 25.6094 Q493.0254 25.7031 493.1191 26.0781 L493.166 26.0781 Q493.1816 25.9375 493.2754 25.625 L494.9785 21 L495.9785 21 ZM494.6973 17.9375 L493.1504 19.8594 L492.416 19.8594 L493.7129 17.9375 L494.6973 17.9375 ZM501.0977 26.7188 Q500.4102 27.1406 499.457 27.1406 Q498.1758 27.1406 497.3789 26.3125 Q496.5977 25.4688 496.5977 24.1406 Q496.5977 22.6562 497.4414 21.7656 Q498.3008 20.8594 499.7227 20.8594 Q500.5039 20.8594 501.1133 21.1562 L501.1133 22.1406 Q500.4414 21.6719 499.6758 21.6719 Q498.7539 21.6719 498.1602 22.3281 Q497.582 22.9844 497.582 24.0625 Q497.582 25.1094 498.1289 25.7188 Q498.6914 26.3281 499.6289 26.3281 Q500.4102 26.3281 501.0977 25.8125 L501.0977 26.7188 ZM507.5312 27 L506.5781 27 L506.5781 23.5469 Q506.5781 21.6719 505.1719 21.6719 Q504.4688 21.6719 503.9844 22.2188 Q503.5156 22.75 503.5156 23.5938 L503.5156 27 L502.5469 27 L502.5469 18.1094 L503.5156 18.1094 L503.5156 22 L503.5312 22 Q504.2344 20.8594 505.5 20.8594 Q507.5312 20.8594 507.5312 23.2969 L507.5312 27 ZM517.75 27 L516.7969 27 L516.7969 25.9844 L516.7656 25.9844 Q516.0938 27.1406 514.7031 27.1406 Q513.5781 27.1406 512.8906 26.3438 Q512.2188 25.5312 512.2188 24.1406 Q512.2188 22.6562 512.9688 21.7656 Q513.7188 20.8594 514.9688 20.8594 Q516.2031 20.8594 516.7656 21.8281 L516.7969 21.8281 L516.7969 18.1094 L517.75 18.1094 L517.75 27 ZM516.7969 24.2812 L516.7969 23.4062 Q516.7969 22.6719 516.3125 22.1719 Q515.8281 21.6719 515.0938 21.6719 Q514.2188 21.6719 513.7031 22.3125 Q513.2031 22.9531 513.2031 24.0938 Q513.2031 25.125 513.6875 25.7344 Q514.1719 26.3281 514.9844 26.3281 Q515.7812 26.3281 516.2812 25.75 Q516.7969 25.1719 516.7969 24.2812 ZM523.9883 27 L523.0352 27 L523.0352 26.0625 L523.0039 26.0625 Q522.3789 27.1406 521.1602 27.1406 Q520.2695 27.1406 519.7539 26.6719 Q519.2539 26.1875 519.2539 25.4062 Q519.2539 23.7188 521.2383 23.4531 L523.0352 23.2031 Q523.0352 21.6719 521.8008 21.6719 Q520.707 21.6719 519.832 22.4062 L519.832 21.4219 Q520.7227 20.8594 521.8789 20.8594 Q523.9883 20.8594 523.9883 23.0938 L523.9883 27 ZM523.0352 23.9688 L521.582 24.1562 Q520.9102 24.25 520.5664 24.5 Q520.2383 24.7344 520.2383 25.3281 Q520.2383 25.7812 520.5508 26.0625 Q520.8633 26.3281 521.3789 26.3281 Q522.0977 26.3281 522.5664 25.8281 Q523.0352 25.3281 523.0352 24.5625 L523.0352 23.9688 ZM528.5781 26.9375 Q528.25 27.125 527.6875 27.125 Q526.1094 27.125 526.1094 25.375 L526.1094 21.8125 L525.0781 21.8125 L525.0781 21 L526.1094 21 L526.1094 19.5312 L527.0781 19.2188 L527.0781 21 L528.5781 21 L528.5781 21.8125 L527.0781 21.8125 L527.0781 25.2031 Q527.0781 25.7969 527.2812 26.0625 Q527.4844 26.3125 527.9531 26.3125 Q528.3281 26.3125 528.5781 26.125 L528.5781 26.9375 Z"
         fill="black" />
      <rect
         id="rect79"
         stroke="none"
         height="107"
         width="217"
         fill="rgb(181,255,255)"
         clip-path="url(#clipPath3)"
         y="58"
         x="344" />
      <path
         id="path81"
         clip-path="url(#clipPath3)"
         d="M344 68 L344 58 L561 58 L561 165 L344 165 L344 101"
         fill="none" />
      <line
         id="line83"
         y1="81"
         x2="344"
         clip-path="url(#clipPath3)"
         x1="344"
         fill="none"
         y2="88" />
      <rect
         id="rect85"
         stroke="none"
         height="13"
         width="20"
         fill="rgb(162,229,229)"
         clip-path="url(#clipPath3)"
         y="68"
         x="334" />
      <rect
         id="rect87"
         stroke="none"
         height="13"
         width="20"
         fill="rgb(162,229,229)"
         clip-path="url(#clipPath3)"
         y="88"
         x="334" />
      <rect
         id="rect89"
         clip-path="url(#clipPath3)"
         y="68"
         height="13"
         width="20"
         x="334"
         fill="none" />
      <rect
         id="rect91"
         clip-path="url(#clipPath3)"
         y="88"
         height="13"
         width="20"
         x="334"
         fill="none" />
      <path
         id="path93"
         stroke="none"
         clip-path="url(#clipPath4)"
         d="M431.125 75 L429.9531 75 L428.5469 72.6406 Q428.3594 72.3125 428.1719 72.0938 Q427.9844 71.8594 427.7969 71.7188 Q427.6094 71.5625 427.3906 71.5 Q427.1719 71.4219 426.8906 71.4219 L426.0938 71.4219 L426.0938 75 L425.1094 75 L425.1094 66.5938 L427.6094 66.5938 Q428.1562 66.5938 428.625 66.7344 Q429.0938 66.875 429.4375 67.1562 Q429.7812 67.4375 429.9688 67.8594 Q430.1719 68.2656 430.1719 68.8281 Q430.1719 69.2812 430.0312 69.6406 Q429.9062 70 429.6562 70.2969 Q429.4219 70.5781 429.0781 70.7812 Q428.7344 70.9844 428.2969 71.0938 L428.2969 71.125 Q428.5156 71.2188 428.6719 71.3438 Q428.8281 71.4531 428.9688 71.625 Q429.1094 71.7812 429.2344 72 Q429.375 72.2031 429.5469 72.4688 L431.125 75 ZM426.0938 67.4844 L426.0938 70.5312 L427.4219 70.5312 Q427.7969 70.5312 428.1094 70.4219 Q428.4219 70.3125 428.6406 70.1094 Q428.875 69.8906 429 69.5938 Q429.1406 69.2969 429.1406 68.9219 Q429.1406 68.25 428.7031 67.875 Q428.2656 67.4844 427.4375 67.4844 L426.0938 67.4844 ZM432.2871 75 L432.2871 66.5938 L434.5996 66.5938 Q439.0371 66.5938 439.0371 70.6875 Q439.0371 72.6406 437.8027 73.8281 Q436.5684 75 434.5059 75 L432.2871 75 ZM433.2715 67.4844 L433.2715 74.1094 L434.5215 74.1094 Q436.1777 74.1094 437.084 73.2344 Q438.0059 72.3438 438.0059 70.7188 Q438.0059 67.4844 434.584 67.4844 L433.2715 67.4844 ZM444.9668 67.4844 L441.6855 67.4844 L441.6855 70.3906 L444.7168 70.3906 L444.7168 71.2812 L441.6855 71.2812 L441.6855 75 L440.7012 75 L440.7012 66.5938 L444.9668 66.5938 L444.9668 67.4844 ZM454.5664 75 L453.5977 75 L453.5977 74.0469 L453.582 74.0469 Q452.9883 75.1406 451.7227 75.1406 Q449.582 75.1406 449.582 72.5781 L449.582 69 L450.5352 69 L450.5352 72.4375 Q450.5352 74.3281 451.9883 74.3281 Q452.6914 74.3281 453.1445 73.8125 Q453.5977 73.2969 453.5977 72.4531 L453.5977 69 L454.5664 69 L454.5664 75 ZM453.6758 65.9375 L452.1289 67.8594 L451.3945 67.8594 L452.6914 65.9375 L453.6758 65.9375 ZM457.4668 75 L456.498 75 L456.498 66.1094 L457.4668 66.1094 L457.4668 75 ZM461.9199 75.1406 Q460.5918 75.1406 459.7949 74.2969 Q458.998 73.4531 458.998 72.0625 Q458.998 70.5625 459.8262 69.7188 Q460.6543 68.8594 462.0605 68.8594 Q463.4043 68.8594 464.1543 69.6875 Q464.9043 70.5156 464.9043 71.9688 Q464.9043 73.4062 464.0918 74.2812 Q463.2793 75.1406 461.9199 75.1406 ZM461.9824 69.6719 Q461.0605 69.6719 460.5137 70.2969 Q459.9824 70.9219 459.9824 72.0312 Q459.9824 73.0938 460.5293 73.7188 Q461.0762 74.3281 461.9824 74.3281 Q462.9199 74.3281 463.4199 73.7344 Q463.9199 73.125 463.9199 72.0156 Q463.9199 70.8906 463.4199 70.2812 Q462.9199 69.6719 461.9824 69.6719 ZM470.623 69.2812 L467.0762 74.1719 L470.5918 74.1719 L470.5918 75 L465.6543 75 L465.6543 74.7031 L469.2168 69.8125 L465.998 69.8125 L465.998 69 L470.623 69 L470.623 69.2812 ZM470.0449 65.9219 L468.7949 67.8594 L468.0137 67.8594 L466.748 65.9219 L467.4199 65.9219 L468.3887 67.2656 L469.3418 65.9219 L470.0449 65.9219 ZM472.3613 67.4688 Q472.0957 67.4688 471.9082 67.2969 Q471.7363 67.125 471.7363 66.8594 Q471.7363 66.5781 471.9082 66.4062 Q472.0957 66.2344 472.3613 66.2344 Q472.627 66.2344 472.7988 66.4062 Q472.9863 66.5781 472.9863 66.8594 Q472.9863 67.1094 472.7988 67.2969 Q472.627 67.4688 472.3613 67.4688 ZM472.8301 75 L471.8613 75 L471.8613 69 L472.8301 69 L472.8301 75 ZM474.4082 74.7812 L474.4082 73.75 Q475.1895 74.3281 476.1426 74.3281 Q477.4082 74.3281 477.4082 73.4844 Q477.4082 73.25 477.2988 73.0781 Q477.1895 72.9062 477.002 72.7812 Q476.8145 72.6562 476.5645 72.5625 Q476.3145 72.4531 476.0332 72.3438 Q475.627 72.1875 475.3301 72.0312 Q475.0332 71.8594 474.8301 71.6562 Q474.627 71.4531 474.5176 71.2031 Q474.4238 70.9375 474.4238 70.5938 Q474.4238 70.1719 474.6113 69.8438 Q474.8145 69.5156 475.127 69.2969 Q475.4551 69.0781 475.8613 68.9688 Q476.2832 68.8594 476.7207 68.8594 Q477.502 68.8594 478.1113 69.125 L478.1113 70.0938 Q477.4551 69.6719 476.5957 69.6719 Q476.3145 69.6719 476.0957 69.7344 Q475.8926 69.7969 475.7363 69.9062 Q475.5801 70.0156 475.4863 70.1719 Q475.4082 70.3281 475.4082 70.5156 Q475.4082 70.75 475.4863 70.9062 Q475.5801 71.0625 475.7363 71.1875 Q475.9082 71.3125 476.1426 71.4062 Q476.377 71.5 476.6738 71.625 Q477.0645 71.7812 477.377 71.9375 Q477.7051 72.0938 477.9238 72.2969 Q478.1426 72.5 478.2676 72.7656 Q478.3926 73.0312 478.3926 73.3906 Q478.3926 73.8438 478.1895 74.1719 Q478.002 74.5 477.6738 74.7188 Q477.3457 74.9219 476.9082 75.0312 Q476.4863 75.1406 476.0176 75.1406 Q475.0957 75.1406 474.4082 74.7812 ZM477.7988 65.9219 L476.5488 67.8594 L475.7676 67.8594 L474.502 65.9219 L475.1738 65.9219 L476.1426 67.2656 L477.0957 65.9219 L477.7988 65.9219 ZM482.6406 74.9375 Q482.3125 75.125 481.75 75.125 Q480.1719 75.125 480.1719 73.375 L480.1719 69.8125 L479.1406 69.8125 L479.1406 69 L480.1719 69 L480.1719 67.5312 L481.1406 67.2188 L481.1406 69 L482.6406 69 L482.6406 69.8125 L481.1406 69.8125 L481.1406 73.2031 Q481.1406 73.7969 481.3438 74.0625 Q481.5469 74.3125 482.0156 74.3125 Q482.3906 74.3125 482.6406 74.125 L482.6406 74.9375 ZM488.7539 72.2344 L484.5195 72.2344 Q484.5352 73.2344 485.0508 73.7812 Q485.5664 74.3281 486.4727 74.3281 Q487.4883 74.3281 488.332 73.6562 L488.332 74.5625 Q487.5508 75.1406 486.2383 75.1406 Q484.9727 75.1406 484.2383 74.3281 Q483.5195 73.5 483.5195 72.0156 Q483.5195 70.625 484.3164 69.75 Q485.1133 68.8594 486.2852 68.8594 Q487.457 68.8594 488.0977 69.625 Q488.7539 70.375 488.7539 71.7344 L488.7539 72.2344 ZM487.7695 71.4219 Q487.7695 70.5938 487.3633 70.1406 Q486.9727 69.6719 486.2695 69.6719 Q485.582 69.6719 485.1133 70.1562 Q484.6445 70.6406 484.5352 71.4219 L487.7695 71.4219 ZM487.9102 65.9219 L486.6602 67.8594 L485.8789 67.8594 L484.6133 65.9219 L485.2852 65.9219 L486.2539 67.2656 L487.207 65.9219 L487.9102 65.9219 Z"
         fill="black" />
      <rect
         id="rect95"
         stroke="none"
         height="53"
         width="167"
         fill="rgb(181,255,255)"
         clip-path="url(#clipPath5)"
         y="94"
         x="370" />
      <rect
         id="rect97"
         clip-path="url(#clipPath5)"
         y="94"
         height="53"
         width="167"
         x="370"
         fill="none" />
      <circle
         id="circle99"
         stroke="black"
         cy="107"
         cx="530"
         clip-path="url(#clipPath5)"
         r="5"
         fill="none" />
      <line
         id="line101"
         stroke="black"
         y2="107"
         y1="107"
         x2="518"
         x1="525"
         fill="none"
         clip-path="url(#clipPath5)" />
      <path
         id="path103"
         stroke="none"
         clip-path="url(#clipPath6)"
         d="M408.7031 110.6562 L408.7031 109.5 Q408.9062 109.6719 409.1875 109.8125 Q409.4688 109.9531 409.7656 110.0625 Q410.0781 110.1562 410.3906 110.2031 Q410.7031 110.25 410.9688 110.25 Q411.875 110.25 412.3125 109.9219 Q412.7656 109.5781 412.7656 108.9531 Q412.7656 108.6094 412.6094 108.3594 Q412.4688 108.1094 412.2031 107.9062 Q411.9375 107.6875 411.5781 107.5 Q411.2188 107.3125 410.8125 107.0938 Q410.375 106.875 409.9844 106.6562 Q409.6094 106.4219 409.3281 106.1406 Q409.0469 105.8594 408.875 105.5156 Q408.7188 105.1719 408.7188 104.7031 Q408.7188 104.125 408.9688 103.7031 Q409.2188 103.2812 409.625 103 Q410.0469 102.7188 410.5625 102.5938 Q411.0938 102.4531 411.6406 102.4531 Q412.875 102.4531 413.4531 102.75 L413.4531 103.8594 Q412.7031 103.3438 411.5469 103.3438 Q411.2188 103.3438 410.8906 103.4219 Q410.5781 103.4844 410.3125 103.6406 Q410.0625 103.7812 409.9062 104.0312 Q409.75 104.2656 409.75 104.6094 Q409.75 104.9375 409.875 105.1719 Q410 105.4062 410.2344 105.6094 Q410.4688 105.7969 410.7969 105.9844 Q411.1406 106.1562 411.5781 106.375 Q412.0312 106.5938 412.4219 106.8438 Q412.8281 107.0781 413.125 107.3906 Q413.4375 107.6875 413.6094 108.0469 Q413.7969 108.4062 413.7969 108.875 Q413.7969 109.5 413.5469 109.9375 Q413.3125 110.3594 412.8906 110.6406 Q412.4844 110.9062 411.9375 111.0156 Q411.4062 111.1406 410.8125 111.1406 Q410.6094 111.1406 410.3125 111.1094 Q410.0312 111.0781 409.7188 111.0156 Q409.4219 110.9531 409.1406 110.8594 Q408.875 110.7656 408.7031 110.6562 ZM416.4688 107.8281 L416.4688 111 L415.4844 111 L415.4844 102.5938 L417.7812 102.5938 Q419.1406 102.5938 419.875 103.25 Q420.6094 103.9062 420.6094 105.1094 Q420.6094 106.2969 419.7812 107.0625 Q418.9688 107.8281 417.5625 107.8281 L416.4688 107.8281 ZM416.4688 103.4844 L416.4688 106.9375 L417.5 106.9375 Q418.5156 106.9375 419.0469 106.4688 Q419.5781 106 419.5781 105.1562 Q419.5781 103.4844 417.6094 103.4844 L416.4688 103.4844 ZM428.7051 111 L427.6113 111 L426.7207 108.6406 L423.1582 108.6406 L422.3145 111 L421.2207 111 L424.4551 102.5938 L425.4707 102.5938 L428.7051 111 ZM426.3926 107.7656 L425.0801 104.1719 Q425.0176 104 424.9551 103.6094 L424.9238 103.6094 Q424.877 103.9688 424.7988 104.1719 L423.4863 107.7656 L426.3926 107.7656 ZM435.9609 111 L434.7891 111 L433.3828 108.6406 Q433.1953 108.3125 433.0078 108.0938 Q432.8203 107.8594 432.6328 107.7188 Q432.4453 107.5625 432.2266 107.5 Q432.0078 107.4219 431.7266 107.4219 L430.9297 107.4219 L430.9297 111 L429.9453 111 L429.9453 102.5938 L432.4453 102.5938 Q432.9922 102.5938 433.4609 102.7344 Q433.9297 102.875 434.2734 103.1562 Q434.6172 103.4375 434.8047 103.8594 Q435.0078 104.2656 435.0078 104.8281 Q435.0078 105.2812 434.8672 105.6406 Q434.7422 106 434.4922 106.2969 Q434.2578 106.5781 433.9141 106.7812 Q433.5703 106.9844 433.1328 107.0938 L433.1328 107.125 Q433.3516 107.2188 433.5078 107.3438 Q433.6641 107.4531 433.8047 107.625 Q433.9453 107.7812 434.0703 108 Q434.2109 108.2031 434.3828 108.4688 L435.9609 111 ZM430.9297 103.4844 L430.9297 106.5312 L432.2578 106.5312 Q432.6328 106.5312 432.9453 106.4219 Q433.2578 106.3125 433.4766 106.1094 Q433.7109 105.8906 433.8359 105.5938 Q433.9766 105.2969 433.9766 104.9219 Q433.9766 104.25 433.5391 103.875 Q433.1016 103.4844 432.2734 103.4844 L430.9297 103.4844 ZM440.498 111.1406 Q438.7168 111.1406 437.6387 109.9688 Q436.5605 108.7812 436.5605 106.8906 Q436.5605 104.8594 437.6543 103.6562 Q438.7637 102.4531 440.6387 102.4531 Q442.373 102.4531 443.4512 103.625 Q444.5137 104.7969 444.5137 106.6875 Q444.5137 108.75 443.4199 109.9375 Q443.1699 110.2344 442.873 110.4375 L445.2324 112.125 L443.4512 112.125 L441.8574 110.9531 Q441.248 111.1406 440.498 111.1406 ZM440.5762 103.3438 Q439.248 103.3438 438.4199 104.2969 Q437.5918 105.25 437.5918 106.8125 Q437.5918 108.3594 438.4043 109.3125 Q439.2012 110.25 440.498 110.25 Q441.8887 110.25 442.6855 109.3594 Q443.4824 108.4531 443.4824 106.8281 Q443.4824 105.1562 442.7012 104.25 Q441.9355 103.3438 440.5762 103.3438 ZM450.5293 111 L446.1699 111 L446.1699 102.5938 L447.1543 102.5938 L447.1543 110.1094 L450.5293 110.1094 L450.5293 111 ZM459.793 108.2344 L455.5586 108.2344 Q455.5742 109.2344 456.0898 109.7812 Q456.6055 110.3281 457.5117 110.3281 Q458.5273 110.3281 459.3711 109.6562 L459.3711 110.5625 Q458.5898 111.1406 457.2773 111.1406 Q456.0117 111.1406 455.2773 110.3281 Q454.5586 109.5 454.5586 108.0156 Q454.5586 106.625 455.3555 105.75 Q456.1523 104.8594 457.3242 104.8594 Q458.4961 104.8594 459.1367 105.625 Q459.793 106.375 459.793 107.7344 L459.793 108.2344 ZM458.8086 107.4219 Q458.8086 106.5938 458.4023 106.1406 Q458.0117 105.6719 457.3086 105.6719 Q456.6211 105.6719 456.1523 106.1562 Q455.6836 106.6406 455.5742 107.4219 L458.8086 107.4219 ZM466.2246 111 L465.2715 111 L465.2715 107.5781 Q465.2715 105.6719 463.8652 105.6719 Q463.1465 105.6719 462.6777 106.2188 Q462.209 106.75 462.209 107.5781 L462.209 111 L461.2402 111 L461.2402 105 L462.209 105 L462.209 106 L462.2246 106 Q462.9121 104.8594 464.1934 104.8594 Q465.1777 104.8594 465.6934 105.5 Q466.2246 106.125 466.2246 107.3281 L466.2246 111 ZM473.1562 111 L472.2031 111 L472.2031 109.9844 L472.1719 109.9844 Q471.5 111.1406 470.1094 111.1406 Q468.9844 111.1406 468.2969 110.3438 Q467.625 109.5312 467.625 108.1406 Q467.625 106.6562 468.375 105.7656 Q469.125 104.8594 470.375 104.8594 Q471.6094 104.8594 472.1719 105.8281 L472.2031 105.8281 L472.2031 102.1094 L473.1562 102.1094 L473.1562 111 ZM472.2031 108.2812 L472.2031 107.4062 Q472.2031 106.6719 471.7188 106.1719 Q471.2344 105.6719 470.5 105.6719 Q469.625 105.6719 469.1094 106.3125 Q468.6094 106.9531 468.6094 108.0938 Q468.6094 109.125 469.0938 109.7344 Q469.5781 110.3281 470.3906 110.3281 Q471.1875 110.3281 471.6875 109.75 Q472.2031 109.1719 472.2031 108.2812 ZM476.082 110.125 L476.0664 110.125 L476.0664 113.7656 L475.0977 113.7656 L475.0977 105 L476.0664 105 L476.0664 106.0469 L476.082 106.0469 Q476.8008 104.8594 478.1602 104.8594 Q479.3164 104.8594 479.9727 105.6719 Q480.6289 106.4688 480.6289 107.8281 Q480.6289 109.3281 479.8945 110.2344 Q479.1602 111.1406 477.8789 111.1406 Q476.7227 111.1406 476.082 110.125 ZM476.0664 107.7188 L476.0664 108.5469 Q476.0664 109.2969 476.5508 109.8125 Q477.0352 110.3281 477.7695 110.3281 Q478.6445 110.3281 479.1445 109.6719 Q479.6445 109 479.6445 107.8125 Q479.6445 106.7969 479.1758 106.2344 Q478.707 105.6719 477.9258 105.6719 Q477.082 105.6719 476.5664 106.25 Q476.0664 106.8281 476.0664 107.7188 ZM484.668 111.1406 Q483.3398 111.1406 482.543 110.2969 Q481.7461 109.4531 481.7461 108.0625 Q481.7461 106.5625 482.5742 105.7188 Q483.4023 104.8594 484.8086 104.8594 Q486.1523 104.8594 486.9023 105.6875 Q487.6523 106.5156 487.6523 107.9688 Q487.6523 109.4062 486.8398 110.2812 Q486.0273 111.1406 484.668 111.1406 ZM484.7305 105.6719 Q483.8086 105.6719 483.2617 106.2969 Q482.7305 106.9219 482.7305 108.0312 Q482.7305 109.0938 483.2773 109.7188 Q483.8242 110.3281 484.7305 110.3281 Q485.668 110.3281 486.168 109.7344 Q486.668 109.125 486.668 108.0156 Q486.668 106.8906 486.168 106.2812 Q485.668 105.6719 484.7305 105.6719 ZM489.6836 103.4688 Q489.418 103.4688 489.2305 103.2969 Q489.0586 103.125 489.0586 102.8594 Q489.0586 102.5781 489.2305 102.4062 Q489.418 102.2344 489.6836 102.2344 Q489.9492 102.2344 490.1211 102.4062 Q490.3086 102.5781 490.3086 102.8594 Q490.3086 103.1094 490.1211 103.2969 Q489.9492 103.4688 489.6836 103.4688 ZM490.1523 111 L489.1836 111 L489.1836 105 L490.1523 105 L490.1523 111 ZM497.0742 111 L496.1211 111 L496.1211 107.5781 Q496.1211 105.6719 494.7148 105.6719 Q493.9961 105.6719 493.5273 106.2188 Q493.0586 106.75 493.0586 107.5781 L493.0586 111 L492.0898 111 L492.0898 105 L493.0586 105 L493.0586 106 L493.0742 106 Q493.7617 104.8594 495.043 104.8594 Q496.0273 104.8594 496.543 105.5 Q497.0742 106.125 497.0742 107.3281 L497.0742 111 ZM501.6621 110.9375 Q501.334 111.125 500.7715 111.125 Q499.1934 111.125 499.1934 109.375 L499.1934 105.8125 L498.1621 105.8125 L498.1621 105 L499.1934 105 L499.1934 103.5312 L500.1621 103.2188 L500.1621 105 L501.6621 105 L501.6621 105.8125 L500.1621 105.8125 L500.1621 109.2031 Q500.1621 109.7969 500.3652 110.0625 Q500.5684 110.3125 501.0371 110.3125 Q501.4121 110.3125 501.6621 110.125 L501.6621 110.9375 Z"
         fill="black" />
      <rect
         id="rect105"
         stroke="none"
         height="107"
         width="109"
         fill="rgb(181,255,255)"
         clip-path="url(#clipPath7)"
         y="58"
         x="740" />
      <path
         id="path107"
         clip-path="url(#clipPath7)"
         d="M740 68 L740 58 L849 58 L849 165 L740 165 L740 101"
         fill="none" />
      <line
         id="line109"
         y1="81"
         x2="740"
         clip-path="url(#clipPath7)"
         x1="740"
         fill="none"
         y2="88" />
      <rect
         id="rect111"
         stroke="none"
         height="13"
         width="20"
         fill="rgb(162,229,229)"
         clip-path="url(#clipPath7)"
         y="68"
         x="730" />
      <rect
         id="rect113"
         stroke="none"
         height="13"
         width="20"
         fill="rgb(162,229,229)"
         clip-path="url(#clipPath7)"
         y="88"
         x="730" />
      <rect
         id="rect115"
         clip-path="url(#clipPath7)"
         y="68"
         height="13"
         width="20"
         x="730"
         fill="none" />
      <rect
         id="rect117"
         clip-path="url(#clipPath7)"
         y="88"
         height="13"
         width="20"
         x="730"
         fill="none" />
      <path
         id="path119"
         stroke="none"
         clip-path="url(#clipPath8)"
         d="M768.0625 66.5938 L765.6875 75 L764.5312 75 L762.8125 68.8594 Q762.7031 68.4688 762.6719 68 L762.6562 68 Q762.6094 68.4375 762.5 68.8438 L760.75 75 L759.6094 75 L757.1562 66.5938 L758.2344 66.5938 L760.0312 73.0469 Q760.1406 73.4531 760.1719 73.8906 L760.1875 73.8906 Q760.2188 73.5781 760.375 73.0469 L762.2344 66.5938 L763.1719 66.5938 L764.9531 73.0938 Q765.0469 73.4219 765.0938 73.875 L765.125 73.875 Q765.1406 73.5625 765.2812 73.0625 L767 66.5938 L768.0625 66.5938 ZM774.0059 72.2344 L769.7715 72.2344 Q769.7871 73.2344 770.3027 73.7812 Q770.8184 74.3281 771.7246 74.3281 Q772.7402 74.3281 773.584 73.6562 L773.584 74.5625 Q772.8027 75.1406 771.4902 75.1406 Q770.2246 75.1406 769.4902 74.3281 Q768.7715 73.5 768.7715 72.0156 Q768.7715 70.625 769.5684 69.75 Q770.3652 68.8594 771.5371 68.8594 Q772.709 68.8594 773.3496 69.625 Q774.0059 70.375 774.0059 71.7344 L774.0059 72.2344 ZM773.0215 71.4219 Q773.0215 70.5938 772.6152 70.1406 Q772.2246 69.6719 771.5215 69.6719 Q770.834 69.6719 770.3652 70.1562 Q769.8965 70.6406 769.7871 71.4219 L773.0215 71.4219 ZM776.4375 74.125 L776.4219 74.125 L776.4219 75 L775.4531 75 L775.4531 66.1094 L776.4219 66.1094 L776.4219 70.0469 L776.4375 70.0469 Q777.1562 68.8594 778.5156 68.8594 Q779.6719 68.8594 780.3281 69.6719 Q780.9844 70.4688 780.9844 71.8281 Q780.9844 73.3281 780.25 74.2344 Q779.5156 75.1406 778.2344 75.1406 Q777.0469 75.1406 776.4375 74.125 ZM776.4219 71.7188 L776.4219 72.5469 Q776.4219 73.2969 776.9062 73.8125 Q777.3906 74.3281 778.125 74.3281 Q779 74.3281 779.5 73.6719 Q780 73 780 71.8125 Q780 70.7969 779.5312 70.2344 Q779.0625 69.6719 778.2812 69.6719 Q777.4375 69.6719 776.9219 70.25 Q776.4219 70.8281 776.4219 71.7188 ZM785.0234 75.1406 Q783.6953 75.1406 782.8984 74.2969 Q782.1016 73.4531 782.1016 72.0625 Q782.1016 70.5625 782.9297 69.7188 Q783.7578 68.8594 785.1641 68.8594 Q786.5078 68.8594 787.2578 69.6875 Q788.0078 70.5156 788.0078 71.9688 Q788.0078 73.4062 787.1953 74.2812 Q786.3828 75.1406 785.0234 75.1406 ZM785.0859 69.6719 Q784.1641 69.6719 783.6172 70.2969 Q783.0859 70.9219 783.0859 72.0312 Q783.0859 73.0938 783.6328 73.7188 Q784.1797 74.3281 785.0859 74.3281 Q786.0234 74.3281 786.5234 73.7344 Q787.0234 73.125 787.0234 72.0156 Q787.0234 70.8906 786.5234 70.2812 Q786.0234 69.6719 785.0859 69.6719 ZM794.2578 69 L791.8672 75 L790.9297 75 L788.6484 69 L789.7109 69 L791.2266 73.3594 Q791.3984 73.8438 791.4453 74.2031 L791.4609 74.2031 Q791.5234 73.75 791.6484 73.375 L793.2422 69 L794.2578 69 ZM799.584 75 L798.6309 75 L798.6309 74.0625 L798.5996 74.0625 Q797.9746 75.1406 796.7559 75.1406 Q795.8652 75.1406 795.3496 74.6719 Q794.8496 74.1875 794.8496 73.4062 Q794.8496 71.7188 796.834 71.4531 L798.6309 71.2031 Q798.6309 69.6719 797.3965 69.6719 Q796.3027 69.6719 795.4277 70.4062 L795.4277 69.4219 Q796.3184 68.8594 797.4746 68.8594 Q799.584 68.8594 799.584 71.0938 L799.584 75 ZM798.6309 71.9688 L797.1777 72.1562 Q796.5059 72.25 796.1621 72.5 Q795.834 72.7344 795.834 73.3281 Q795.834 73.7812 796.1465 74.0625 Q796.459 74.3281 796.9746 74.3281 Q797.6934 74.3281 798.1621 73.8281 Q798.6309 73.3281 798.6309 72.5625 L798.6309 71.9688 ZM798.7559 65.9375 L797.209 67.8594 L796.4746 67.8594 L797.7715 65.9375 L798.7559 65.9375 ZM804.3203 74.7812 L804.3203 73.75 Q805.1016 74.3281 806.0547 74.3281 Q807.3203 74.3281 807.3203 73.4844 Q807.3203 73.25 807.2109 73.0781 Q807.1016 72.9062 806.9141 72.7812 Q806.7266 72.6562 806.4766 72.5625 Q806.2266 72.4531 805.9453 72.3438 Q805.5391 72.1875 805.2422 72.0312 Q804.9453 71.8594 804.7422 71.6562 Q804.5391 71.4531 804.4297 71.2031 Q804.3359 70.9375 804.3359 70.5938 Q804.3359 70.1719 804.5234 69.8438 Q804.7266 69.5156 805.0391 69.2969 Q805.3672 69.0781 805.7734 68.9688 Q806.1953 68.8594 806.6328 68.8594 Q807.4141 68.8594 808.0234 69.125 L808.0234 70.0938 Q807.3672 69.6719 806.5078 69.6719 Q806.2266 69.6719 806.0078 69.7344 Q805.8047 69.7969 805.6484 69.9062 Q805.4922 70.0156 805.3984 70.1719 Q805.3203 70.3281 805.3203 70.5156 Q805.3203 70.75 805.3984 70.9062 Q805.4922 71.0625 805.6484 71.1875 Q805.8203 71.3125 806.0547 71.4062 Q806.2891 71.5 806.5859 71.625 Q806.9766 71.7812 807.2891 71.9375 Q807.6172 72.0938 807.8359 72.2969 Q808.0547 72.5 808.1797 72.7656 Q808.3047 73.0312 808.3047 73.3906 Q808.3047 73.8438 808.1016 74.1719 Q807.9141 74.5 807.5859 74.7188 Q807.2578 74.9219 806.8203 75.0312 Q806.3984 75.1406 805.9297 75.1406 Q805.0078 75.1406 804.3203 74.7812 ZM812.5527 74.9375 Q812.2246 75.125 811.6621 75.125 Q810.084 75.125 810.084 73.375 L810.084 69.8125 L809.0527 69.8125 L809.0527 69 L810.084 69 L810.084 67.5312 L811.0527 67.2188 L811.0527 69 L812.5527 69 L812.5527 69.8125 L811.0527 69.8125 L811.0527 73.2031 Q811.0527 73.7969 811.2559 74.0625 Q811.459 74.3125 811.9277 74.3125 Q812.3027 74.3125 812.5527 74.125 L812.5527 74.9375 ZM816.9785 69.9688 Q816.7129 69.7812 816.2441 69.7812 Q815.6348 69.7812 815.2129 70.3594 Q814.8066 70.9375 814.8066 71.9375 L814.8066 75 L813.8379 75 L813.8379 69 L814.8066 69 L814.8066 70.2344 L814.8223 70.2344 Q815.0254 69.6094 815.4473 69.25 Q815.8691 68.8906 816.4004 68.8906 Q816.7754 68.8906 816.9785 68.9688 L816.9785 69.9688 ZM822.3066 75 L821.3535 75 L821.3535 74.0625 L821.3223 74.0625 Q820.6973 75.1406 819.4785 75.1406 Q818.5879 75.1406 818.0723 74.6719 Q817.5723 74.1875 817.5723 73.4062 Q817.5723 71.7188 819.5566 71.4531 L821.3535 71.2031 Q821.3535 69.6719 820.1191 69.6719 Q819.0254 69.6719 818.1504 70.4062 L818.1504 69.4219 Q819.041 68.8594 820.1973 68.8594 Q822.3066 68.8594 822.3066 71.0938 L822.3066 75 ZM821.3535 71.9688 L819.9004 72.1562 Q819.2285 72.25 818.8848 72.5 Q818.5566 72.7344 818.5566 73.3281 Q818.5566 73.7812 818.8691 74.0625 Q819.1816 74.3281 819.6973 74.3281 Q820.416 74.3281 820.8848 73.8281 Q821.3535 73.3281 821.3535 72.5625 L821.3535 71.9688 ZM821.4785 65.9375 L819.9316 67.8594 L819.1973 67.8594 L820.4941 65.9375 L821.4785 65.9375 ZM829.0996 75 L828.1465 75 L828.1465 71.5781 Q828.1465 69.6719 826.7402 69.6719 Q826.0215 69.6719 825.5527 70.2188 Q825.084 70.75 825.084 71.5781 L825.084 75 L824.1152 75 L824.1152 69 L825.084 69 L825.084 70 L825.0996 70 Q825.7871 68.8594 827.0684 68.8594 Q828.0527 68.8594 828.5684 69.5 Q829.0996 70.125 829.0996 71.3281 L829.0996 75 ZM835.8906 75 L834.5469 75 L831.8906 72.1094 L831.875 72.1094 L831.875 75 L830.9062 75 L830.9062 66.1094 L831.875 66.1094 L831.875 71.75 L831.8906 71.75 L834.4219 69 L835.6719 69 L832.8906 71.8906 L835.8906 75 ZM841.168 75 L840.2148 75 L840.2148 74.0625 L840.1836 74.0625 Q839.5586 75.1406 838.3398 75.1406 Q837.4492 75.1406 836.9336 74.6719 Q836.4336 74.1875 836.4336 73.4062 Q836.4336 71.7188 838.418 71.4531 L840.2148 71.2031 Q840.2148 69.6719 838.9805 69.6719 Q837.8867 69.6719 837.0117 70.4062 L837.0117 69.4219 Q837.9023 68.8594 839.0586 68.8594 Q841.168 68.8594 841.168 71.0938 L841.168 75 ZM840.2148 71.9688 L838.7617 72.1562 Q838.0898 72.25 837.7461 72.5 Q837.418 72.7344 837.418 73.3281 Q837.418 73.7812 837.7305 74.0625 Q838.043 74.3281 838.5586 74.3281 Q839.2773 74.3281 839.7461 73.8281 Q840.2148 73.3281 840.2148 72.5625 L840.2148 71.9688 Z"
         fill="black" />
      <rect
         id="rect121"
         stroke="none"
         height="107"
         width="205"
         fill="rgb(181,255,255)"
         clip-path="url(#clipPath9)"
         y="58"
         x="44" />
      <path
         id="path123"
         clip-path="url(#clipPath9)"
         d="M44 68 L44 58 L249 58 L249 165 L44 165 L44 101"
         fill="none" />
      <line
         id="line125"
         y1="81"
         x2="44"
         clip-path="url(#clipPath9)"
         x1="44"
         fill="none"
         y2="88" />
      <rect
         id="rect127"
         stroke="none"
         height="13"
         width="20"
         fill="rgb(162,229,229)"
         clip-path="url(#clipPath9)"
         y="68"
         x="34" />
      <rect
         id="rect129"
         stroke="none"
         height="13"
         width="20"
         fill="rgb(162,229,229)"
         clip-path="url(#clipPath9)"
         y="88"
         x="34" />
      <rect
         id="rect131"
         clip-path="url(#clipPath9)"
         y="68"
         height="13"
         width="20"
         x="34"
         fill="none" />
      <rect
         id="rect133"
         clip-path="url(#clipPath9)"
         y="88"
         height="13"
         width="20"
         x="34"
         fill="none" />
      <path
         id="path135"
         stroke="none"
         clip-path="url(#clipPath10)"
         d="M70.6719 75 L69.6875 75 L69.6875 69.3594 Q69.6875 68.6875 69.7656 67.7344 L69.75 67.7344 Q69.6094 68.2969 69.5 68.5469 L66.625 75 L66.1406 75 L63.2812 68.5938 Q63.1562 68.3125 63.0312 67.7344 L63 67.7344 Q63.0469 68.2344 63.0469 69.375 L63.0469 75 L62.1094 75 L62.1094 66.5938 L63.4062 66.5938 L65.9844 72.4531 Q66.2812 73.125 66.375 73.4688 L66.4062 73.4688 Q66.6562 72.7656 66.8125 72.4375 L69.4375 66.5938 L70.6719 66.5938 L70.6719 75 ZM77.5723 72.2344 L73.3379 72.2344 Q73.3535 73.2344 73.8691 73.7812 Q74.3848 74.3281 75.291 74.3281 Q76.3066 74.3281 77.1504 73.6562 L77.1504 74.5625 Q76.3691 75.1406 75.0566 75.1406 Q73.791 75.1406 73.0566 74.3281 Q72.3379 73.5 72.3379 72.0156 Q72.3379 70.625 73.1348 69.75 Q73.9316 68.8594 75.1035 68.8594 Q76.2754 68.8594 76.916 69.625 Q77.5723 70.375 77.5723 71.7344 L77.5723 72.2344 ZM76.5879 71.4219 Q76.5879 70.5938 76.1816 70.1406 Q75.791 69.6719 75.0879 69.6719 Q74.4004 69.6719 73.9316 70.1562 Q73.4629 70.6406 73.3535 71.4219 L76.5879 71.4219 ZM81.8008 74.9375 Q81.4727 75.125 80.9102 75.125 Q79.332 75.125 79.332 73.375 L79.332 69.8125 L78.3008 69.8125 L78.3008 69 L79.332 69 L79.332 67.5312 L80.3008 67.2188 L80.3008 69 L81.8008 69 L81.8008 69.8125 L80.3008 69.8125 L80.3008 73.2031 Q80.3008 73.7969 80.5039 74.0625 Q80.707 74.3125 81.1758 74.3125 Q81.5508 74.3125 81.8008 74.125 L81.8008 74.9375 ZM87.3828 75 L86.4297 75 L86.4297 74.0625 L86.3984 74.0625 Q85.7734 75.1406 84.5547 75.1406 Q83.6641 75.1406 83.1484 74.6719 Q82.6484 74.1875 82.6484 73.4062 Q82.6484 71.7188 84.6328 71.4531 L86.4297 71.2031 Q86.4297 69.6719 85.1953 69.6719 Q84.1016 69.6719 83.2266 70.4062 L83.2266 69.4219 Q84.1172 68.8594 85.2734 68.8594 Q87.3828 68.8594 87.3828 71.0938 L87.3828 75 ZM86.4297 71.9688 L84.9766 72.1562 Q84.3047 72.25 83.9609 72.5 Q83.6328 72.7344 83.6328 73.3281 Q83.6328 73.7812 83.9453 74.0625 Q84.2578 74.3281 84.7734 74.3281 Q85.4922 74.3281 85.9609 73.8281 Q86.4297 73.3281 86.4297 72.5625 L86.4297 71.9688 ZM94.3164 75 L93.3633 75 L93.3633 73.9844 L93.332 73.9844 Q92.6602 75.1406 91.2695 75.1406 Q90.1445 75.1406 89.457 74.3438 Q88.7852 73.5312 88.7852 72.1406 Q88.7852 70.6562 89.5352 69.7656 Q90.2852 68.8594 91.5352 68.8594 Q92.7695 68.8594 93.332 69.8281 L93.3633 69.8281 L93.3633 66.1094 L94.3164 66.1094 L94.3164 75 ZM93.3633 72.2812 L93.3633 71.4062 Q93.3633 70.6719 92.8789 70.1719 Q92.3945 69.6719 91.6602 69.6719 Q90.7852 69.6719 90.2695 70.3125 Q89.7695 70.9531 89.7695 72.0938 Q89.7695 73.125 90.2539 73.7344 Q90.7383 74.3281 91.5508 74.3281 Q92.3477 74.3281 92.8477 73.75 Q93.3633 73.1719 93.3633 72.2812 ZM100.5547 75 L99.6016 75 L99.6016 74.0625 L99.5703 74.0625 Q98.9453 75.1406 97.7266 75.1406 Q96.8359 75.1406 96.3203 74.6719 Q95.8203 74.1875 95.8203 73.4062 Q95.8203 71.7188 97.8047 71.4531 L99.6016 71.2031 Q99.6016 69.6719 98.3672 69.6719 Q97.2734 69.6719 96.3984 70.4062 L96.3984 69.4219 Q97.2891 68.8594 98.4453 68.8594 Q100.5547 68.8594 100.5547 71.0938 L100.5547 75 ZM99.6016 71.9688 L98.1484 72.1562 Q97.4766 72.25 97.1328 72.5 Q96.8047 72.7344 96.8047 73.3281 Q96.8047 73.7812 97.1172 74.0625 Q97.4297 74.3281 97.9453 74.3281 Q98.6641 74.3281 99.1328 73.8281 Q99.6016 73.3281 99.6016 72.5625 L99.6016 71.9688 ZM105.1445 74.9375 Q104.8164 75.125 104.2539 75.125 Q102.6758 75.125 102.6758 73.375 L102.6758 69.8125 L101.6445 69.8125 L101.6445 69 L102.6758 69 L102.6758 67.5312 L103.6445 67.2188 L103.6445 69 L105.1445 69 L105.1445 69.8125 L103.6445 69.8125 L103.6445 73.2031 Q103.6445 73.7969 103.8477 74.0625 Q104.0508 74.3125 104.5195 74.3125 Q104.8945 74.3125 105.1445 74.125 L105.1445 74.9375 ZM108.9453 75.1406 Q107.6172 75.1406 106.8203 74.2969 Q106.0234 73.4531 106.0234 72.0625 Q106.0234 70.5625 106.8516 69.7188 Q107.6797 68.8594 109.0859 68.8594 Q110.4297 68.8594 111.1797 69.6875 Q111.9297 70.5156 111.9297 71.9688 Q111.9297 73.4062 111.1172 74.2812 Q110.3047 75.1406 108.9453 75.1406 ZM109.0078 69.6719 Q108.0859 69.6719 107.5391 70.2969 Q107.0078 70.9219 107.0078 72.0312 Q107.0078 73.0938 107.5547 73.7188 Q108.1016 74.3281 109.0078 74.3281 Q109.9453 74.3281 110.4453 73.7344 Q110.9453 73.125 110.9453 72.0156 Q110.9453 70.8906 110.4453 70.2812 Q109.9453 69.6719 109.0078 69.6719 ZM118.1797 69 L115.7891 75 L114.8516 75 L112.5703 69 L113.6328 69 L115.1484 73.3594 Q115.3203 73.8438 115.3672 74.2031 L115.3828 74.2031 Q115.4453 73.75 115.5703 73.375 L117.1641 69 L118.1797 69 ZM123.9902 69 L121.2246 75.9688 Q120.4902 77.8281 119.1621 77.8281 Q118.7871 77.8281 118.5215 77.75 L118.5215 76.8906 Q118.834 77 119.0996 77 Q119.8184 77 120.1934 76.125 L120.6621 74.9844 L118.3184 69 L119.3965 69 L121.0059 73.6094 Q121.0371 73.7031 121.1309 74.0781 L121.1777 74.0781 Q121.1934 73.9375 121.2871 73.625 L122.9902 69 L123.9902 69 ZM122.709 65.9375 L121.1621 67.8594 L120.4277 67.8594 L121.7246 65.9375 L122.709 65.9375 ZM129.2871 74.125 L129.2715 74.125 L129.2715 77.7656 L128.3027 77.7656 L128.3027 69 L129.2715 69 L129.2715 70.0469 L129.2871 70.0469 Q130.0059 68.8594 131.3652 68.8594 Q132.5215 68.8594 133.1777 69.6719 Q133.834 70.4688 133.834 71.8281 Q133.834 73.3281 133.0996 74.2344 Q132.3652 75.1406 131.084 75.1406 Q129.9277 75.1406 129.2871 74.125 ZM129.2715 71.7188 L129.2715 72.5469 Q129.2715 73.2969 129.7559 73.8125 Q130.2402 74.3281 130.9746 74.3281 Q131.8496 74.3281 132.3496 73.6719 Q132.8496 73 132.8496 71.8125 Q132.8496 70.7969 132.3809 70.2344 Q131.9121 69.6719 131.1309 69.6719 Q130.2871 69.6719 129.7715 70.25 Q129.2715 70.8281 129.2715 71.7188 ZM138.498 69.9688 Q138.2324 69.7812 137.7637 69.7812 Q137.1543 69.7812 136.7324 70.3594 Q136.3262 70.9375 136.3262 71.9375 L136.3262 75 L135.3574 75 L135.3574 69 L136.3262 69 L136.3262 70.2344 L136.3418 70.2344 Q136.5449 69.6094 136.9668 69.25 Q137.3887 68.8906 137.9199 68.8906 Q138.2949 68.8906 138.498 68.9688 L138.498 69.9688 ZM142.0449 75.1406 Q140.7168 75.1406 139.9199 74.2969 Q139.123 73.4531 139.123 72.0625 Q139.123 70.5625 139.9512 69.7188 Q140.7793 68.8594 142.1855 68.8594 Q143.5293 68.8594 144.2793 69.6875 Q145.0293 70.5156 145.0293 71.9688 Q145.0293 73.4062 144.2168 74.2812 Q143.4043 75.1406 142.0449 75.1406 ZM142.1074 69.6719 Q141.1855 69.6719 140.6387 70.2969 Q140.1074 70.9219 140.1074 72.0312 Q140.1074 73.0938 140.6543 73.7188 Q141.2012 74.3281 142.1074 74.3281 Q143.0449 74.3281 143.5449 73.7344 Q144.0449 73.125 144.0449 72.0156 Q144.0449 70.8906 143.5449 70.2812 Q143.0449 69.6719 142.1074 69.6719 ZM150.6543 74.7188 Q149.9668 75.1406 149.0137 75.1406 Q147.7324 75.1406 146.9355 74.3125 Q146.1543 73.4688 146.1543 72.1406 Q146.1543 70.6562 146.998 69.7656 Q147.8574 68.8594 149.2793 68.8594 Q150.0605 68.8594 150.6699 69.1562 L150.6699 70.1406 Q149.998 69.6719 149.2324 69.6719 Q148.3105 69.6719 147.7168 70.3281 Q147.1387 70.9844 147.1387 72.0625 Q147.1387 73.1094 147.6855 73.7188 Q148.248 74.3281 149.1855 74.3281 Q149.9668 74.3281 150.6543 73.8125 L150.6543 74.7188 ZM156.9316 72.2344 L152.6973 72.2344 Q152.7129 73.2344 153.2285 73.7812 Q153.7441 74.3281 154.6504 74.3281 Q155.666 74.3281 156.5098 73.6562 L156.5098 74.5625 Q155.7285 75.1406 154.416 75.1406 Q153.1504 75.1406 152.416 74.3281 Q151.6973 73.5 151.6973 72.0156 Q151.6973 70.625 152.4941 69.75 Q153.291 68.8594 154.4629 68.8594 Q155.6348 68.8594 156.2754 69.625 Q156.9316 70.375 156.9316 71.7344 L156.9316 72.2344 ZM155.9473 71.4219 Q155.9473 70.5938 155.541 70.1406 Q155.1504 69.6719 154.4473 69.6719 Q153.7598 69.6719 153.291 70.1562 Q152.8223 70.6406 152.7129 71.4219 L155.9473 71.4219 ZM158.0195 74.7812 L158.0195 73.75 Q158.8008 74.3281 159.7539 74.3281 Q161.0195 74.3281 161.0195 73.4844 Q161.0195 73.25 160.9102 73.0781 Q160.8008 72.9062 160.6133 72.7812 Q160.4258 72.6562 160.1758 72.5625 Q159.9258 72.4531 159.6445 72.3438 Q159.2383 72.1875 158.9414 72.0312 Q158.6445 71.8594 158.4414 71.6562 Q158.2383 71.4531 158.1289 71.2031 Q158.0352 70.9375 158.0352 70.5938 Q158.0352 70.1719 158.2227 69.8438 Q158.4258 69.5156 158.7383 69.2969 Q159.0664 69.0781 159.4727 68.9688 Q159.8945 68.8594 160.332 68.8594 Q161.1133 68.8594 161.7227 69.125 L161.7227 70.0938 Q161.0664 69.6719 160.207 69.6719 Q159.9258 69.6719 159.707 69.7344 Q159.5039 69.7969 159.3477 69.9062 Q159.1914 70.0156 159.0977 70.1719 Q159.0195 70.3281 159.0195 70.5156 Q159.0195 70.75 159.0977 70.9062 Q159.1914 71.0625 159.3477 71.1875 Q159.5195 71.3125 159.7539 71.4062 Q159.9883 71.5 160.2852 71.625 Q160.6758 71.7812 160.9883 71.9375 Q161.3164 72.0938 161.5352 72.2969 Q161.7539 72.5 161.8789 72.7656 Q162.0039 73.0312 162.0039 73.3906 Q162.0039 73.8438 161.8008 74.1719 Q161.6133 74.5 161.2852 74.7188 Q160.957 74.9219 160.5195 75.0312 Q160.0977 75.1406 159.6289 75.1406 Q158.707 75.1406 158.0195 74.7812 ZM165.9863 75.1406 Q164.6582 75.1406 163.8613 74.2969 Q163.0645 73.4531 163.0645 72.0625 Q163.0645 70.5625 163.8926 69.7188 Q164.7207 68.8594 166.127 68.8594 Q167.4707 68.8594 168.2207 69.6875 Q168.9707 70.5156 168.9707 71.9688 Q168.9707 73.4062 168.1582 74.2812 Q167.3457 75.1406 165.9863 75.1406 ZM166.0488 69.6719 Q165.127 69.6719 164.5801 70.2969 Q164.0488 70.9219 164.0488 72.0312 Q164.0488 73.0938 164.5957 73.7188 Q165.1426 74.3281 166.0488 74.3281 Q166.9863 74.3281 167.4863 73.7344 Q167.9863 73.125 167.9863 72.0156 Q167.9863 70.8906 167.4863 70.2812 Q166.9863 69.6719 166.0488 69.6719 ZM173.6426 69.9688 Q173.377 69.7812 172.9082 69.7812 Q172.2988 69.7812 171.877 70.3594 Q171.4707 70.9375 171.4707 71.9375 L171.4707 75 L170.502 75 L170.502 69 L171.4707 69 L171.4707 70.2344 L171.4863 70.2344 Q171.6895 69.6094 172.1113 69.25 Q172.5332 68.8906 173.0645 68.8906 Q173.4395 68.8906 173.6426 68.9688 L173.6426 69.9688 ZM182.4609 75 L178.1016 75 L178.1016 66.5938 L179.0859 66.5938 L179.0859 74.1094 L182.4609 74.1094 L182.4609 75 ZM184.1094 67.4688 Q183.8438 67.4688 183.6562 67.2969 Q183.4844 67.125 183.4844 66.8594 Q183.4844 66.5781 183.6562 66.4062 Q183.8438 66.2344 184.1094 66.2344 Q184.375 66.2344 184.5469 66.4062 Q184.7344 66.5781 184.7344 66.8594 Q184.7344 67.1094 184.5469 67.2969 Q184.375 67.4688 184.1094 67.4688 ZM184.5781 75 L183.6094 75 L183.6094 69 L184.5781 69 L184.5781 75 ZM191.5 75 L190.5469 75 L190.5469 71.5781 Q190.5469 69.6719 189.1406 69.6719 Q188.4219 69.6719 187.9531 70.2188 Q187.4844 70.75 187.4844 71.5781 L187.4844 75 L186.5156 75 L186.5156 69 L187.4844 69 L187.4844 70 L187.5 70 Q188.1875 68.8594 189.4688 68.8594 Q190.4531 68.8594 190.9688 69.5 Q191.5 70.125 191.5 71.3281 L191.5 75 ZM198.291 75 L196.9473 75 L194.291 72.1094 L194.2754 72.1094 L194.2754 75 L193.3066 75 L193.3066 66.1094 L194.2754 66.1094 L194.2754 71.75 L194.291 71.75 L196.8223 69 L198.0723 69 L195.291 71.8906 L198.291 75 ZM204.0996 72.2344 L199.8652 72.2344 Q199.8809 73.2344 200.3965 73.7812 Q200.9121 74.3281 201.8184 74.3281 Q202.834 74.3281 203.6777 73.6562 L203.6777 74.5625 Q202.8965 75.1406 201.584 75.1406 Q200.3184 75.1406 199.584 74.3281 Q198.8652 73.5 198.8652 72.0156 Q198.8652 70.625 199.6621 69.75 Q200.459 68.8594 201.6309 68.8594 Q202.8027 68.8594 203.4434 69.625 Q204.0996 70.375 204.0996 71.7344 L204.0996 72.2344 ZM203.1152 71.4219 Q203.1152 70.5938 202.709 70.1406 Q202.3184 69.6719 201.6152 69.6719 Q200.9277 69.6719 200.459 70.1562 Q199.9902 70.6406 199.8809 71.4219 L203.1152 71.4219 ZM210.6719 75 L209.7188 75 L209.7188 73.9844 L209.6875 73.9844 Q209.0156 75.1406 207.625 75.1406 Q206.5 75.1406 205.8125 74.3438 Q205.1406 73.5312 205.1406 72.1406 Q205.1406 70.6562 205.8906 69.7656 Q206.6406 68.8594 207.8906 68.8594 Q209.125 68.8594 209.6875 69.8281 L209.7188 69.8281 L209.7188 66.1094 L210.6719 66.1094 L210.6719 75 ZM209.7188 72.2812 L209.7188 71.4062 Q209.7188 70.6719 209.2344 70.1719 Q208.75 69.6719 208.0156 69.6719 Q207.1406 69.6719 206.625 70.3125 Q206.125 70.9531 206.125 72.0938 Q206.125 73.125 206.6094 73.7344 Q207.0938 74.3281 207.9062 74.3281 Q208.7031 74.3281 209.2031 73.75 Q209.7188 73.1719 209.7188 72.2812 ZM213.7383 71.8281 L213.7383 75 L212.7539 75 L212.7539 66.5938 L215.0508 66.5938 Q216.4102 66.5938 217.1445 67.25 Q217.8789 67.9062 217.8789 69.1094 Q217.8789 70.2969 217.0508 71.0625 Q216.2383 71.8281 214.832 71.8281 L213.7383 71.8281 ZM213.7383 67.4844 L213.7383 70.9375 L214.7695 70.9375 Q215.7852 70.9375 216.3164 70.4688 Q216.8477 70 216.8477 69.1562 Q216.8477 67.4844 214.8789 67.4844 L213.7383 67.4844 ZM219.834 67.4688 Q219.5684 67.4688 219.3809 67.2969 Q219.209 67.125 219.209 66.8594 Q219.209 66.5781 219.3809 66.4062 Q219.5684 66.2344 219.834 66.2344 Q220.0996 66.2344 220.2715 66.4062 Q220.459 66.5781 220.459 66.8594 Q220.459 67.1094 220.2715 67.2969 Q220.0996 67.4688 219.834 67.4688 ZM220.3027 75 L219.334 75 L219.334 69 L220.3027 69 L220.3027 75 ZM223.2246 74.125 L223.209 74.125 L223.209 77.7656 L222.2402 77.7656 L222.2402 69 L223.209 69 L223.209 70.0469 L223.2246 70.0469 Q223.9434 68.8594 225.3027 68.8594 Q226.459 68.8594 227.1152 69.6719 Q227.7715 70.4688 227.7715 71.8281 Q227.7715 73.3281 227.0371 74.2344 Q226.3027 75.1406 225.0215 75.1406 Q223.8652 75.1406 223.2246 74.125 ZM223.209 71.7188 L223.209 72.5469 Q223.209 73.2969 223.6934 73.8125 Q224.1777 74.3281 224.9121 74.3281 Q225.7871 74.3281 226.2871 73.6719 Q226.7871 73 226.7871 71.8125 Q226.7871 70.7969 226.3184 70.2344 Q225.8496 69.6719 225.0684 69.6719 Q224.2246 69.6719 223.709 70.25 Q223.209 70.8281 223.209 71.7188 ZM234.123 72.2344 L229.8887 72.2344 Q229.9043 73.2344 230.4199 73.7812 Q230.9355 74.3281 231.8418 74.3281 Q232.8574 74.3281 233.7012 73.6562 L233.7012 74.5625 Q232.9199 75.1406 231.6074 75.1406 Q230.3418 75.1406 229.6074 74.3281 Q228.8887 73.5 228.8887 72.0156 Q228.8887 70.625 229.6855 69.75 Q230.4824 68.8594 231.6543 68.8594 Q232.8262 68.8594 233.4668 69.625 Q234.123 70.375 234.123 71.7344 L234.123 72.2344 ZM233.1387 71.4219 Q233.1387 70.5938 232.7324 70.1406 Q232.3418 69.6719 231.6387 69.6719 Q230.9512 69.6719 230.4824 70.1562 Q230.0137 70.6406 229.9043 71.4219 L233.1387 71.4219 ZM235.2109 74.7812 L235.2109 73.75 Q235.9922 74.3281 236.9453 74.3281 Q238.2109 74.3281 238.2109 73.4844 Q238.2109 73.25 238.1016 73.0781 Q237.9922 72.9062 237.8047 72.7812 Q237.6172 72.6562 237.3672 72.5625 Q237.1172 72.4531 236.8359 72.3438 Q236.4297 72.1875 236.1328 72.0312 Q235.8359 71.8594 235.6328 71.6562 Q235.4297 71.4531 235.3203 71.2031 Q235.2266 70.9375 235.2266 70.5938 Q235.2266 70.1719 235.4141 69.8438 Q235.6172 69.5156 235.9297 69.2969 Q236.2578 69.0781 236.6641 68.9688 Q237.0859 68.8594 237.5234 68.8594 Q238.3047 68.8594 238.9141 69.125 L238.9141 70.0938 Q238.2578 69.6719 237.3984 69.6719 Q237.1172 69.6719 236.8984 69.7344 Q236.6953 69.7969 236.5391 69.9062 Q236.3828 70.0156 236.2891 70.1719 Q236.2109 70.3281 236.2109 70.5156 Q236.2109 70.75 236.2891 70.9062 Q236.3828 71.0625 236.5391 71.1875 Q236.7109 71.3125 236.9453 71.4062 Q237.1797 71.5 237.4766 71.625 Q237.8672 71.7812 238.1797 71.9375 Q238.5078 72.0938 238.7266 72.2969 Q238.9453 72.5 239.0703 72.7656 Q239.1953 73.0312 239.1953 73.3906 Q239.1953 73.8438 238.9922 74.1719 Q238.8047 74.5 238.4766 74.7188 Q238.1484 74.9219 237.7109 75.0312 Q237.2891 75.1406 236.8203 75.1406 Q235.8984 75.1406 235.2109 74.7812 Z"
         fill="black" />
      <path
         id="path137"
         stroke="none"
         clip-path="url(#clipPath10)"
         d="M147.5625 91 L143.1094 91 L143.1094 82.5938 L147.375 82.5938 L147.375 83.4844 L144.0938 83.4844 L144.0938 86.2812 L147.125 86.2812 L147.125 87.1719 L144.0938 87.1719 L144.0938 90.1094 L147.5625 90.1094 L147.5625 91 ZM154.1484 83.4844 L151.7109 83.4844 L151.7109 91 L150.7266 91 L150.7266 83.4844 L148.3047 83.4844 L148.3047 82.5938 L154.1484 82.5938 L154.1484 83.4844 ZM159.8262 91 L155.4668 91 L155.4668 82.5938 L156.4512 82.5938 L156.4512 90.1094 L159.8262 90.1094 L159.8262 91 Z"
         fill="black" />
      <path
         id="path139"
         stroke="black"
         clip-path="url(#clipPath11)"
         d="M538 121 L730 121"
         stroke-dasharray="6,3"
         fill="none" />
      <polygon
         id="polygon141"
         stroke="none"
         points=" 730 121 723 124 723 118"
         clip-path="url(#clipPath12)"
         stroke-dasharray="6,3"
         fill="black" />
      <polygon
         id="polygon143"
         stroke="black"
         points=" 730 121 723 124 723 118"
         clip-path="url(#clipPath12)"
         fill="none" />
      <path
         id="path145"
         stroke="none"
         clip-path="url(#clipPath13)"
         d="M588.7031 125.6562 L588.7031 124.5 Q588.9062 124.6719 589.1875 124.8125 Q589.4688 124.9531 589.7656 125.0625 Q590.0781 125.1562 590.3906 125.2031 Q590.7031 125.25 590.9688 125.25 Q591.875 125.25 592.3125 124.9219 Q592.7656 124.5781 592.7656 123.9531 Q592.7656 123.6094 592.6094 123.3594 Q592.4688 123.1094 592.2031 122.9062 Q591.9375 122.6875 591.5781 122.5 Q591.2188 122.3125 590.8125 122.0938 Q590.375 121.875 589.9844 121.6562 Q589.6094 121.4219 589.3281 121.1406 Q589.0469 120.8594 588.875 120.5156 Q588.7188 120.1719 588.7188 119.7031 Q588.7188 119.125 588.9688 118.7031 Q589.2188 118.2812 589.625 118 Q590.0469 117.7188 590.5625 117.5938 Q591.0938 117.4531 591.6406 117.4531 Q592.875 117.4531 593.4531 117.75 L593.4531 118.8594 Q592.7031 118.3438 591.5469 118.3438 Q591.2188 118.3438 590.8906 118.4219 Q590.5781 118.4844 590.3125 118.6406 Q590.0625 118.7812 589.9062 119.0312 Q589.75 119.2656 589.75 119.6094 Q589.75 119.9375 589.875 120.1719 Q590 120.4062 590.2344 120.6094 Q590.4688 120.7969 590.7969 120.9844 Q591.1406 121.1562 591.5781 121.375 Q592.0312 121.5938 592.4219 121.8438 Q592.8281 122.0781 593.125 122.3906 Q593.4375 122.6875 593.6094 123.0469 Q593.7969 123.4062 593.7969 123.875 Q593.7969 124.5 593.5469 124.9375 Q593.3125 125.3594 592.8906 125.6406 Q592.4844 125.9062 591.9375 126.0156 Q591.4062 126.1406 590.8125 126.1406 Q590.6094 126.1406 590.3125 126.1094 Q590.0312 126.0781 589.7188 126.0156 Q589.4219 125.9531 589.1406 125.8594 Q588.875 125.7656 588.7031 125.6562 ZM596.4688 122.8281 L596.4688 126 L595.4844 126 L595.4844 117.5938 L597.7812 117.5938 Q599.1406 117.5938 599.875 118.25 Q600.6094 118.9062 600.6094 120.1094 Q600.6094 121.2969 599.7812 122.0625 Q598.9688 122.8281 597.5625 122.8281 L596.4688 122.8281 ZM596.4688 118.4844 L596.4688 121.9375 L597.5 121.9375 Q598.5156 121.9375 599.0469 121.4688 Q599.5781 121 599.5781 120.1562 Q599.5781 118.4844 597.6094 118.4844 L596.4688 118.4844 ZM608.7051 126 L607.6113 126 L606.7207 123.6406 L603.1582 123.6406 L602.3145 126 L601.2207 126 L604.4551 117.5938 L605.4707 117.5938 L608.7051 126 ZM606.3926 122.7656 L605.0801 119.1719 Q605.0176 119 604.9551 118.6094 L604.9238 118.6094 Q604.877 118.9688 604.7988 119.1719 L603.4863 122.7656 L606.3926 122.7656 ZM615.9609 126 L614.7891 126 L613.3828 123.6406 Q613.1953 123.3125 613.0078 123.0938 Q612.8203 122.8594 612.6328 122.7188 Q612.4453 122.5625 612.2266 122.5 Q612.0078 122.4219 611.7266 122.4219 L610.9297 122.4219 L610.9297 126 L609.9453 126 L609.9453 117.5938 L612.4453 117.5938 Q612.9922 117.5938 613.4609 117.7344 Q613.9297 117.875 614.2734 118.1562 Q614.6172 118.4375 614.8047 118.8594 Q615.0078 119.2656 615.0078 119.8281 Q615.0078 120.2812 614.8672 120.6406 Q614.7422 121 614.4922 121.2969 Q614.2578 121.5781 613.9141 121.7812 Q613.5703 121.9844 613.1328 122.0938 L613.1328 122.125 Q613.3516 122.2188 613.5078 122.3438 Q613.6641 122.4531 613.8047 122.625 Q613.9453 122.7812 614.0703 123 Q614.2109 123.2031 614.3828 123.4688 L615.9609 126 ZM610.9297 118.4844 L610.9297 121.5312 L612.2578 121.5312 Q612.6328 121.5312 612.9453 121.4219 Q613.2578 121.3125 613.4766 121.1094 Q613.7109 120.8906 613.8359 120.5938 Q613.9766 120.2969 613.9766 119.9219 Q613.9766 119.25 613.5391 118.875 Q613.1016 118.4844 612.2734 118.4844 L610.9297 118.4844 ZM620.498 126.1406 Q618.7168 126.1406 617.6387 124.9688 Q616.5605 123.7812 616.5605 121.8906 Q616.5605 119.8594 617.6543 118.6562 Q618.7637 117.4531 620.6387 117.4531 Q622.373 117.4531 623.4512 118.625 Q624.5137 119.7969 624.5137 121.6875 Q624.5137 123.75 623.4199 124.9375 Q623.1699 125.2344 622.873 125.4375 L625.2324 127.125 L623.4512 127.125 L621.8574 125.9531 Q621.248 126.1406 620.498 126.1406 ZM620.5762 118.3438 Q619.248 118.3438 618.4199 119.2969 Q617.5918 120.25 617.5918 121.8125 Q617.5918 123.3594 618.4043 124.3125 Q619.2012 125.25 620.498 125.25 Q621.8887 125.25 622.6855 124.3594 Q623.4824 123.4531 623.4824 121.8281 Q623.4824 120.1562 622.7012 119.25 Q621.9355 118.3438 620.5762 118.3438 ZM630.5293 126 L626.1699 126 L626.1699 117.5938 L627.1543 117.5938 L627.1543 125.1094 L630.5293 125.1094 L630.5293 126 ZM637.4805 126.1406 Q636.1523 126.1406 635.3555 125.2969 Q634.5586 124.4531 634.5586 123.0625 Q634.5586 121.5625 635.3867 120.7188 Q636.2148 119.8594 637.6211 119.8594 Q638.9648 119.8594 639.7148 120.6875 Q640.4648 121.5156 640.4648 122.9688 Q640.4648 124.4062 639.6523 125.2812 Q638.8398 126.1406 637.4805 126.1406 ZM637.543 120.6719 Q636.6211 120.6719 636.0742 121.2969 Q635.543 121.9219 635.543 123.0312 Q635.543 124.0938 636.0898 124.7188 Q636.6367 125.3281 637.543 125.3281 Q638.4805 125.3281 638.9805 124.7344 Q639.4805 124.125 639.4805 123.0156 Q639.4805 121.8906 638.9805 121.2812 Q638.4805 120.6719 637.543 120.6719 ZM647.1211 126 L646.168 126 L646.168 124.9844 L646.1367 124.9844 Q645.4648 126.1406 644.0742 126.1406 Q642.9492 126.1406 642.2617 125.3438 Q641.5898 124.5312 641.5898 123.1406 Q641.5898 121.6562 642.3398 120.7656 Q643.0898 119.8594 644.3398 119.8594 Q645.5742 119.8594 646.1367 120.8281 L646.168 120.8281 L646.168 117.1094 L647.1211 117.1094 L647.1211 126 ZM646.168 123.2812 L646.168 122.4062 Q646.168 121.6719 645.6836 121.1719 Q645.1992 120.6719 644.4648 120.6719 Q643.5898 120.6719 643.0742 121.3125 Q642.5742 121.9531 642.5742 123.0938 Q642.5742 124.125 643.0586 124.7344 Q643.543 125.3281 644.3555 125.3281 Q645.1523 125.3281 645.6523 124.75 Q646.168 124.1719 646.168 123.2812 ZM650.0469 125.125 L650.0312 125.125 L650.0312 128.7656 L649.0625 128.7656 L649.0625 120 L650.0312 120 L650.0312 121.0469 L650.0469 121.0469 Q650.7656 119.8594 652.125 119.8594 Q653.2812 119.8594 653.9375 120.6719 Q654.5938 121.4688 654.5938 122.8281 Q654.5938 124.3281 653.8594 125.2344 Q653.125 126.1406 651.8438 126.1406 Q650.6875 126.1406 650.0469 125.125 ZM650.0312 122.7188 L650.0312 123.5469 Q650.0312 124.2969 650.5156 124.8125 Q651 125.3281 651.7344 125.3281 Q652.6094 125.3281 653.1094 124.6719 Q653.6094 124 653.6094 122.8125 Q653.6094 121.7969 653.1406 121.2344 Q652.6719 120.6719 651.8906 120.6719 Q651.0469 120.6719 650.5312 121.25 Q650.0312 121.8281 650.0312 122.7188 ZM658.6328 126.1406 Q657.3047 126.1406 656.5078 125.2969 Q655.7109 124.4531 655.7109 123.0625 Q655.7109 121.5625 656.5391 120.7188 Q657.3672 119.8594 658.7734 119.8594 Q660.1172 119.8594 660.8672 120.6875 Q661.6172 121.5156 661.6172 122.9688 Q661.6172 124.4062 660.8047 125.2812 Q659.9922 126.1406 658.6328 126.1406 ZM658.6953 120.6719 Q657.7734 120.6719 657.2266 121.2969 Q656.6953 121.9219 656.6953 123.0312 Q656.6953 124.0938 657.2422 124.7188 Q657.7891 125.3281 658.6953 125.3281 Q659.6328 125.3281 660.1328 124.7344 Q660.6328 124.125 660.6328 123.0156 Q660.6328 121.8906 660.1328 121.2812 Q659.6328 120.6719 658.6953 120.6719 ZM667.8672 120 L665.4766 126 L664.5391 126 L662.2578 120 L663.3203 120 L664.8359 124.3594 Q665.0078 124.8438 665.0547 125.2031 L665.0703 125.2031 Q665.1328 124.75 665.2578 124.375 L666.8516 120 L667.8672 120 ZM673.7246 123.2344 L669.4902 123.2344 Q669.5059 124.2344 670.0215 124.7812 Q670.5371 125.3281 671.4434 125.3281 Q672.459 125.3281 673.3027 124.6562 L673.3027 125.5625 Q672.5215 126.1406 671.209 126.1406 Q669.9434 126.1406 669.209 125.3281 Q668.4902 124.5 668.4902 123.0156 Q668.4902 121.625 669.2871 120.75 Q670.084 119.8594 671.2559 119.8594 Q672.4277 119.8594 673.0684 120.625 Q673.7246 121.375 673.7246 122.7344 L673.7246 123.2344 ZM672.7402 122.4219 Q672.7402 121.5938 672.334 121.1406 Q671.9434 120.6719 671.2402 120.6719 Q670.5527 120.6719 670.084 121.1562 Q669.6152 121.6406 669.5059 122.4219 L672.7402 122.4219 ZM672.8809 116.9219 L671.6309 118.8594 L670.8496 118.8594 L669.584 116.9219 L670.2559 116.9219 L671.2246 118.2656 L672.1777 116.9219 L672.8809 116.9219 ZM680.2969 126 L679.3438 126 L679.3438 124.9844 L679.3125 124.9844 Q678.6406 126.1406 677.25 126.1406 Q676.125 126.1406 675.4375 125.3438 Q674.7656 124.5312 674.7656 123.1406 Q674.7656 121.6562 675.5156 120.7656 Q676.2656 119.8594 677.5156 119.8594 Q678.75 119.8594 679.3125 120.8281 L679.3438 120.8281 L679.3438 117.1094 L680.2969 117.1094 L680.2969 126 ZM679.3438 123.2812 L679.3438 122.4062 Q679.3438 121.6719 678.8594 121.1719 Q678.375 120.6719 677.6406 120.6719 Q676.7656 120.6719 676.25 121.3125 Q675.75 121.9531 675.75 123.0938 Q675.75 124.125 676.2344 124.7344 Q676.7188 125.3281 677.5312 125.3281 Q678.3281 125.3281 678.8281 124.75 Q679.3438 124.1719 679.3438 123.2812 ZM682.7656 117.125 L681.7812 118.6406 L681.0625 118.6406 L681.75 117.125 L682.7656 117.125 Z"
         fill="black" />
      <path
         id="path147"
         stroke="black"
         clip-path="url(#clipPath14)"
         d="M250 121 L370 121"
         stroke-dasharray="6,3"
         fill="none" />
      <polygon
         id="polygon149"
         stroke="none"
         points=" 370 121 363 124 363 118"
         clip-path="url(#clipPath15)"
         stroke-dasharray="6,3"
         fill="black" />
      <polygon
         id="polygon151"
         stroke="black"
         points=" 370 121 363 124 363 118"
         clip-path="url(#clipPath15)"
         fill="none" />
      <path
         id="path153"
         stroke="none"
         clip-path="url(#clipPath16)"
         d="M297.25 106.5938 Q297.25 110.1406 294.0625 110.1406 Q291 110.1406 291 106.7344 L291 101.5938 L291.9844 101.5938 L291.9844 106.6719 Q291.9844 109.25 294.1562 109.25 Q296.2656 109.25 296.2656 106.7656 L296.2656 101.5938 L297.25 101.5938 L297.25 106.5938 ZM300.1816 110 L299.2129 110 L299.2129 101.1094 L300.1816 101.1094 L300.1816 110 ZM304.6348 110.1406 Q303.3066 110.1406 302.5098 109.2969 Q301.7129 108.4531 301.7129 107.0625 Q301.7129 105.5625 302.541 104.7188 Q303.3691 103.8594 304.7754 103.8594 Q306.1191 103.8594 306.8691 104.6875 Q307.6191 105.5156 307.6191 106.9688 Q307.6191 108.4062 306.8066 109.2812 Q305.9941 110.1406 304.6348 110.1406 ZM304.6973 104.6719 Q303.7754 104.6719 303.2285 105.2969 Q302.6973 105.9219 302.6973 107.0312 Q302.6973 108.0938 303.2441 108.7188 Q303.791 109.3281 304.6973 109.3281 Q305.6348 109.3281 306.1348 108.7344 Q306.6348 108.125 306.6348 107.0156 Q306.6348 105.8906 306.1348 105.2812 Q305.6348 104.6719 304.6973 104.6719 ZM313.3379 104.2812 L309.791 109.1719 L313.3066 109.1719 L313.3066 110 L308.3691 110 L308.3691 109.7031 L311.9316 104.8125 L308.7129 104.8125 L308.7129 104 L313.3379 104 L313.3379 104.2812 ZM312.7598 100.9219 L311.5098 102.8594 L310.7285 102.8594 L309.4629 100.9219 L310.1348 100.9219 L311.1035 102.2656 L312.0566 100.9219 L312.7598 100.9219 ZM319.4043 107.2344 L315.1699 107.2344 Q315.1855 108.2344 315.7012 108.7812 Q316.2168 109.3281 317.123 109.3281 Q318.1387 109.3281 318.9824 108.6562 L318.9824 109.5625 Q318.2012 110.1406 316.8887 110.1406 Q315.623 110.1406 314.8887 109.3281 Q314.1699 108.5 314.1699 107.0156 Q314.1699 105.625 314.9668 104.75 Q315.7637 103.8594 316.9355 103.8594 Q318.1074 103.8594 318.748 104.625 Q319.4043 105.375 319.4043 106.7344 L319.4043 107.2344 ZM318.4199 106.4219 Q318.4199 105.5938 318.0137 105.1406 Q317.623 104.6719 316.9199 104.6719 Q316.2324 104.6719 315.7637 105.1562 Q315.2949 105.6406 315.1855 106.4219 L318.4199 106.4219 ZM325.8359 110 L324.8828 110 L324.8828 106.5781 Q324.8828 104.6719 323.4766 104.6719 Q322.7578 104.6719 322.2891 105.2188 Q321.8203 105.75 321.8203 106.5781 L321.8203 110 L320.8516 110 L320.8516 104 L321.8203 104 L321.8203 105 L321.8359 105 Q322.5234 103.8594 323.8047 103.8594 Q324.7891 103.8594 325.3047 104.5 Q325.8359 105.125 325.8359 106.3281 L325.8359 110 ZM328.6113 110 L327.6426 110 L327.6426 104 L328.6113 104 L328.6113 110 ZM329.4707 100.9375 L327.9238 102.8594 L327.1895 102.8594 L328.4863 100.9375 L329.4707 100.9375 Z"
         fill="black" />
      <path
         id="path155"
         stroke="none"
         clip-path="url(#clipPath16)"
         d="M293.4844 126.1406 Q292.1562 126.1406 291.3594 125.2969 Q290.5625 124.4531 290.5625 123.0625 Q290.5625 121.5625 291.3906 120.7188 Q292.2188 119.8594 293.625 119.8594 Q294.9688 119.8594 295.7188 120.6875 Q296.4688 121.5156 296.4688 122.9688 Q296.4688 124.4062 295.6562 125.2812 Q294.8438 126.1406 293.4844 126.1406 ZM293.5469 120.6719 Q292.625 120.6719 292.0781 121.2969 Q291.5469 121.9219 291.5469 123.0312 Q291.5469 124.0938 292.0938 124.7188 Q292.6406 125.3281 293.5469 125.3281 Q294.4844 125.3281 294.9844 124.7344 Q295.4844 124.125 295.4844 123.0156 Q295.4844 121.8906 294.9844 121.2812 Q294.4844 120.6719 293.5469 120.6719 ZM298.9844 125.125 L298.9688 125.125 L298.9688 126 L298 126 L298 117.1094 L298.9688 117.1094 L298.9688 121.0469 L298.9844 121.0469 Q299.7031 119.8594 301.0625 119.8594 Q302.2188 119.8594 302.875 120.6719 Q303.5312 121.4688 303.5312 122.8281 Q303.5312 124.3281 302.7969 125.2344 Q302.0625 126.1406 300.7812 126.1406 Q299.5938 126.1406 298.9844 125.125 ZM298.9688 122.7188 L298.9688 123.5469 Q298.9688 124.2969 299.4531 124.8125 Q299.9375 125.3281 300.6719 125.3281 Q301.5469 125.3281 302.0469 124.6719 Q302.5469 124 302.5469 122.8125 Q302.5469 121.7969 302.0781 121.2344 Q301.6094 120.6719 300.8281 120.6719 Q299.9844 120.6719 299.4688 121.25 Q298.9688 121.8281 298.9688 122.7188 ZM304.6953 125.7812 L304.6953 124.75 Q305.4766 125.3281 306.4297 125.3281 Q307.6953 125.3281 307.6953 124.4844 Q307.6953 124.25 307.5859 124.0781 Q307.4766 123.9062 307.2891 123.7812 Q307.1016 123.6562 306.8516 123.5625 Q306.6016 123.4531 306.3203 123.3438 Q305.9141 123.1875 305.6172 123.0312 Q305.3203 122.8594 305.1172 122.6562 Q304.9141 122.4531 304.8047 122.2031 Q304.7109 121.9375 304.7109 121.5938 Q304.7109 121.1719 304.8984 120.8438 Q305.1016 120.5156 305.4141 120.2969 Q305.7422 120.0781 306.1484 119.9688 Q306.5703 119.8594 307.0078 119.8594 Q307.7891 119.8594 308.3984 120.125 L308.3984 121.0938 Q307.7422 120.6719 306.8828 120.6719 Q306.6016 120.6719 306.3828 120.7344 Q306.1797 120.7969 306.0234 120.9062 Q305.8672 121.0156 305.7734 121.1719 Q305.6953 121.3281 305.6953 121.5156 Q305.6953 121.75 305.7734 121.9062 Q305.8672 122.0625 306.0234 122.1875 Q306.1953 122.3125 306.4297 122.4062 Q306.6641 122.5 306.9609 122.625 Q307.3516 122.7812 307.6641 122.9375 Q307.9922 123.0938 308.2109 123.2969 Q308.4297 123.5 308.5547 123.7656 Q308.6797 124.0312 308.6797 124.3906 Q308.6797 124.8438 308.4766 125.1719 Q308.2891 125.5 307.9609 125.7188 Q307.6328 125.9219 307.1953 126.0312 Q306.7734 126.1406 306.3047 126.1406 Q305.3828 126.1406 304.6953 125.7812 ZM314.4434 126 L313.4902 126 L313.4902 125.0625 L313.459 125.0625 Q312.834 126.1406 311.6152 126.1406 Q310.7246 126.1406 310.209 125.6719 Q309.709 125.1875 309.709 124.4062 Q309.709 122.7188 311.6934 122.4531 L313.4902 122.2031 Q313.4902 120.6719 312.2559 120.6719 Q311.1621 120.6719 310.2871 121.4062 L310.2871 120.4219 Q311.1777 119.8594 312.334 119.8594 Q314.4434 119.8594 314.4434 122.0938 L314.4434 126 ZM313.4902 122.9688 L312.0371 123.1562 Q311.3652 123.25 311.0215 123.5 Q310.6934 123.7344 310.6934 124.3281 Q310.6934 124.7812 311.0059 125.0625 Q311.3184 125.3281 311.834 125.3281 Q312.5527 125.3281 313.0215 124.8281 Q313.4902 124.3281 313.4902 123.5625 L313.4902 122.9688 ZM321.2363 126 L320.2832 126 L320.2832 122.5469 Q320.2832 120.6719 318.877 120.6719 Q318.1738 120.6719 317.6895 121.2188 Q317.2207 121.75 317.2207 122.5938 L317.2207 126 L316.252 126 L316.252 117.1094 L317.2207 117.1094 L317.2207 121 L317.2363 121 Q317.9395 119.8594 319.2051 119.8594 Q321.2363 119.8594 321.2363 122.2969 L321.2363 126 ZM327.9023 126 L326.9336 126 L326.9336 125.0469 L326.918 125.0469 Q326.3242 126.1406 325.0586 126.1406 Q322.918 126.1406 322.918 123.5781 L322.918 120 L323.8711 120 L323.8711 123.4375 Q323.8711 125.3281 325.3242 125.3281 Q326.0273 125.3281 326.4805 124.8125 Q326.9336 124.2969 326.9336 123.4531 L326.9336 120 L327.9023 120 L327.9023 126 Z"
         fill="black" />
      <path
         id="path157"
         stroke="none"
         clip-path="url(#clipPath16)"
         d="M300.875 142 L299.6719 142 L295.3438 135.2969 Q295.1875 135.0469 295.0781 134.7812 L295.0469 134.7812 Q295.0938 135.0469 295.0938 135.9219 L295.0938 142 L294.1094 142 L294.1094 133.5938 L295.375 133.5938 L299.5938 140.1875 Q299.8438 140.5938 299.9219 140.75 L299.9531 140.75 Q299.8906 140.3906 299.8906 139.5156 L299.8906 133.5938 L300.875 133.5938 L300.875 142 ZM308.9297 142 L307.5547 142 L304.3047 138.1562 Q304.1328 137.9375 304.0859 137.8594 L304.0703 137.8594 L304.0703 142 L303.0859 142 L303.0859 133.5938 L304.0703 133.5938 L304.0703 137.5469 L304.0859 137.5469 Q304.1641 137.4219 304.3047 137.2656 L307.4453 133.5938 L308.6797 133.5938 L305.0703 137.625 L308.9297 142 ZM313.4219 142.1406 Q311.6406 142.1406 310.5625 140.9688 Q309.4844 139.7812 309.4844 137.8906 Q309.4844 135.875 310.5781 134.6719 Q311.6875 133.4531 313.5625 133.4531 Q315.3125 133.4531 316.375 134.625 Q317.4375 135.7969 317.4375 137.6875 Q317.4375 139.75 316.3438 140.9531 Q315.25 142.1406 313.4219 142.1406 ZM313.5 134.3438 Q312.1719 134.3438 311.3438 135.2969 Q310.5156 136.25 310.5156 137.8125 Q310.5156 139.3594 311.3125 140.3125 Q312.125 141.25 313.4219 141.25 Q314.8125 141.25 315.6094 140.3594 Q316.4062 139.4531 316.4062 137.8281 Q316.4062 136.1562 315.625 135.25 Q314.8594 134.3438 313.5 134.3438 ZM319.0938 142 L319.0938 133.5938 L321.4062 133.5938 Q325.8438 133.5938 325.8438 137.6875 Q325.8438 139.6406 324.6094 140.8281 Q323.375 142 321.3125 142 L319.0938 142 ZM320.0781 134.4844 L320.0781 141.1094 L321.3281 141.1094 Q322.9844 141.1094 323.8906 140.2344 Q324.8125 139.3438 324.8125 137.7188 Q324.8125 134.4844 321.3906 134.4844 L320.0781 134.4844 Z"
         fill="black" />
      <path
         id="path159"
         stroke="black"
         clip-path="url(#clipPath17)"
         d="M730 106 L634 106 L634 106 L634 106 L634 106 L634 106 L634 106 L634 106 L538 106"
         stroke-dasharray="6,3"
         fill="none" />
      <polygon
         id="polygon161"
         stroke="none"
         points=" 538 106 545 103 545 109"
         clip-path="url(#clipPath18)"
         stroke-dasharray="6,3"
         fill="black" />
      <polygon
         id="polygon163"
         stroke="black"
         points=" 538 106 545 103 545 109"
         clip-path="url(#clipPath18)"
         fill="none" />
      <path
         id="path165"
         stroke="none"
         clip-path="url(#clipPath19)"
         d="M597.7031 110.6562 L597.7031 109.5 Q597.9062 109.6719 598.1875 109.8125 Q598.4688 109.9531 598.7656 110.0625 Q599.0781 110.1562 599.3906 110.2031 Q599.7031 110.25 599.9688 110.25 Q600.875 110.25 601.3125 109.9219 Q601.7656 109.5781 601.7656 108.9531 Q601.7656 108.6094 601.6094 108.3594 Q601.4688 108.1094 601.2031 107.9062 Q600.9375 107.6875 600.5781 107.5 Q600.2188 107.3125 599.8125 107.0938 Q599.375 106.875 598.9844 106.6562 Q598.6094 106.4219 598.3281 106.1406 Q598.0469 105.8594 597.875 105.5156 Q597.7188 105.1719 597.7188 104.7031 Q597.7188 104.125 597.9688 103.7031 Q598.2188 103.2812 598.625 103 Q599.0469 102.7188 599.5625 102.5938 Q600.0938 102.4531 600.6406 102.4531 Q601.875 102.4531 602.4531 102.75 L602.4531 103.8594 Q601.7031 103.3438 600.5469 103.3438 Q600.2188 103.3438 599.8906 103.4219 Q599.5781 103.4844 599.3125 103.6406 Q599.0625 103.7812 598.9062 104.0312 Q598.75 104.2656 598.75 104.6094 Q598.75 104.9375 598.875 105.1719 Q599 105.4062 599.2344 105.6094 Q599.4688 105.7969 599.7969 105.9844 Q600.1406 106.1562 600.5781 106.375 Q601.0312 106.5938 601.4219 106.8438 Q601.8281 107.0781 602.125 107.3906 Q602.4375 107.6875 602.6094 108.0469 Q602.7969 108.4062 602.7969 108.875 Q602.7969 109.5 602.5469 109.9375 Q602.3125 110.3594 601.8906 110.6406 Q601.4844 110.9062 600.9375 111.0156 Q600.4062 111.1406 599.8125 111.1406 Q599.6094 111.1406 599.3125 111.1094 Q599.0312 111.0781 598.7188 111.0156 Q598.4219 110.9531 598.1406 110.8594 Q597.875 110.7656 597.7031 110.6562 ZM605.4688 107.8281 L605.4688 111 L604.4844 111 L604.4844 102.5938 L606.7812 102.5938 Q608.1406 102.5938 608.875 103.25 Q609.6094 103.9062 609.6094 105.1094 Q609.6094 106.2969 608.7812 107.0625 Q607.9688 107.8281 606.5625 107.8281 L605.4688 107.8281 ZM605.4688 103.4844 L605.4688 106.9375 L606.5 106.9375 Q607.5156 106.9375 608.0469 106.4688 Q608.5781 106 608.5781 105.1562 Q608.5781 103.4844 606.6094 103.4844 L605.4688 103.4844 ZM617.7051 111 L616.6113 111 L615.7207 108.6406 L612.1582 108.6406 L611.3145 111 L610.2207 111 L613.4551 102.5938 L614.4707 102.5938 L617.7051 111 ZM615.3926 107.7656 L614.0801 104.1719 Q614.0176 104 613.9551 103.6094 L613.9238 103.6094 Q613.877 103.9688 613.7988 104.1719 L612.4863 107.7656 L615.3926 107.7656 ZM624.9609 111 L623.7891 111 L622.3828 108.6406 Q622.1953 108.3125 622.0078 108.0938 Q621.8203 107.8594 621.6328 107.7188 Q621.4453 107.5625 621.2266 107.5 Q621.0078 107.4219 620.7266 107.4219 L619.9297 107.4219 L619.9297 111 L618.9453 111 L618.9453 102.5938 L621.4453 102.5938 Q621.9922 102.5938 622.4609 102.7344 Q622.9297 102.875 623.2734 103.1562 Q623.6172 103.4375 623.8047 103.8594 Q624.0078 104.2656 624.0078 104.8281 Q624.0078 105.2812 623.8672 105.6406 Q623.7422 106 623.4922 106.2969 Q623.2578 106.5781 622.9141 106.7812 Q622.5703 106.9844 622.1328 107.0938 L622.1328 107.125 Q622.3516 107.2188 622.5078 107.3438 Q622.6641 107.4531 622.8047 107.625 Q622.9453 107.7812 623.0703 108 Q623.2109 108.2031 623.3828 108.4688 L624.9609 111 ZM619.9297 103.4844 L619.9297 106.5312 L621.2578 106.5312 Q621.6328 106.5312 621.9453 106.4219 Q622.2578 106.3125 622.4766 106.1094 Q622.7109 105.8906 622.8359 105.5938 Q622.9766 105.2969 622.9766 104.9219 Q622.9766 104.25 622.5391 103.875 Q622.1016 103.4844 621.2734 103.4844 L619.9297 103.4844 ZM629.498 111.1406 Q627.7168 111.1406 626.6387 109.9688 Q625.5605 108.7812 625.5605 106.8906 Q625.5605 104.8594 626.6543 103.6562 Q627.7637 102.4531 629.6387 102.4531 Q631.373 102.4531 632.4512 103.625 Q633.5137 104.7969 633.5137 106.6875 Q633.5137 108.75 632.4199 109.9375 Q632.1699 110.2344 631.873 110.4375 L634.2324 112.125 L632.4512 112.125 L630.8574 110.9531 Q630.248 111.1406 629.498 111.1406 ZM629.5762 103.3438 Q628.248 103.3438 627.4199 104.2969 Q626.5918 105.25 626.5918 106.8125 Q626.5918 108.3594 627.4043 109.3125 Q628.2012 110.25 629.498 110.25 Q630.8887 110.25 631.6855 109.3594 Q632.4824 108.4531 632.4824 106.8281 Q632.4824 105.1562 631.7012 104.25 Q630.9355 103.3438 629.5762 103.3438 ZM639.5293 111 L635.1699 111 L635.1699 102.5938 L636.1543 102.5938 L636.1543 110.1094 L639.5293 110.1094 L639.5293 111 ZM649.0898 111 L648.1367 111 L648.1367 109.9844 L648.1055 109.9844 Q647.4336 111.1406 646.043 111.1406 Q644.918 111.1406 644.2305 110.3438 Q643.5586 109.5312 643.5586 108.1406 Q643.5586 106.6562 644.3086 105.7656 Q645.0586 104.8594 646.3086 104.8594 Q647.543 104.8594 648.1055 105.8281 L648.1367 105.8281 L648.1367 102.1094 L649.0898 102.1094 L649.0898 111 ZM648.1367 108.2812 L648.1367 107.4062 Q648.1367 106.6719 647.6523 106.1719 Q647.168 105.6719 646.4336 105.6719 Q645.5586 105.6719 645.043 106.3125 Q644.543 106.9531 644.543 108.0938 Q644.543 109.125 645.0273 109.7344 Q645.5117 110.3281 646.3242 110.3281 Q647.1211 110.3281 647.6211 109.75 Q648.1367 109.1719 648.1367 108.2812 ZM653.5469 111.1406 Q652.2188 111.1406 651.4219 110.2969 Q650.625 109.4531 650.625 108.0625 Q650.625 106.5625 651.4531 105.7188 Q652.2812 104.8594 653.6875 104.8594 Q655.0312 104.8594 655.7812 105.6875 Q656.5312 106.5156 656.5312 107.9688 Q656.5312 109.4062 655.7188 110.2812 Q654.9062 111.1406 653.5469 111.1406 ZM653.6094 105.6719 Q652.6875 105.6719 652.1406 106.2969 Q651.6094 106.9219 651.6094 108.0312 Q651.6094 109.0938 652.1562 109.7188 Q652.7031 110.3281 653.6094 110.3281 Q654.5469 110.3281 655.0469 109.7344 Q655.5469 109.125 655.5469 108.0156 Q655.5469 106.8906 655.0469 106.2812 Q654.5469 105.6719 653.6094 105.6719 ZM660.8438 110.9375 Q660.5156 111.125 659.9531 111.125 Q658.375 111.125 658.375 109.375 L658.375 105.8125 L657.3438 105.8125 L657.3438 105 L658.375 105 L658.375 103.5312 L659.3438 103.2188 L659.3438 105 L660.8438 105 L660.8438 105.8125 L659.3438 105.8125 L659.3438 109.2031 Q659.3438 109.7969 659.5469 110.0625 Q659.75 110.3125 660.2188 110.3125 Q660.5938 110.3125 660.8438 110.125 L660.8438 110.9375 ZM666.4258 111 L665.4727 111 L665.4727 110.0625 L665.4414 110.0625 Q664.8164 111.1406 663.5977 111.1406 Q662.707 111.1406 662.1914 110.6719 Q661.6914 110.1875 661.6914 109.4062 Q661.6914 107.7188 663.6758 107.4531 L665.4727 107.2031 Q665.4727 105.6719 664.2383 105.6719 Q663.1445 105.6719 662.2695 106.4062 L662.2695 105.4219 Q663.1602 104.8594 664.3164 104.8594 Q666.4258 104.8594 666.4258 107.0938 L666.4258 111 ZM665.4727 107.9688 L664.0195 108.1562 Q663.3477 108.25 663.0039 108.5 Q662.6758 108.7344 662.6758 109.3281 Q662.6758 109.7812 662.9883 110.0625 Q663.3008 110.3281 663.8164 110.3281 Q664.5352 110.3281 665.0039 109.8281 Q665.4727 109.3281 665.4727 108.5625 L665.4727 107.9688 ZM672.4219 105.2812 L668.875 110.1719 L672.3906 110.1719 L672.3906 111 L667.4531 111 L667.4531 110.7031 L671.0156 105.8125 L667.7969 105.8125 L667.7969 105 L672.4219 105 L672.4219 105.2812 Z"
         fill="black" />
    </g>
  </g>
</svg>
